<svg xmlns="http://www.w3.org/2000/svg" width="18" height="17" viewBox="0 0 18 17">
    <path fill="#FA332E" fill-rule="nonzero" stroke="#FFF" stroke-width="2" d="M16.88 3.363a.819.819 0 0 0-.006-.753.77.77 0 0 0-.297-.734l-.721-.57c-.422-.335-1.083-.44-1.494 0a101.154 101.154 0 0 1-5.839 5.752C7.02 5.706 5.498 4.372 3.987 3.036a1.063 1.063 0 0 0-1.631.237c-.486.232-.88.535-1.206 1.052a.779.779 0 0 0 0 .804c.976 1.683 2.86 3.164 4.411 4.526-.207.179-.413.359-.625.534-2.088 1.727-3.497 2.822-.884 4.593.036.024.072.018.107.032.05.023.099.038.154.047.017 0 .033.003.05.002.054.004.107.018.161.007 1.406-.265 2.712-1.325 3.898-2.493 1.155 1.096 2.385 2.143 3.737 2.765.322.148.706.061.953-.145.416.03.795-.219.985-.576l.077-.045c.604-.363.66-1.087.212-1.586-1.01-1.126-2.082-2.197-3.177-3.249 1.97-1.853 4.43-3.852 5.67-6.178z"/>
</svg>
