<svg xmlns="http://www.w3.org/2000/svg" viewBox="0 0 160 144"><defs><style>.cls-1{opacity:0.8;}.cls-2{fill:#445c7f;}</style></defs><g id="Layer_2" data-name="Layer 2"><g id="Layer_1-2" data-name="Layer 1"><g class="cls-1"><path id="b" d="M4,0H45.93a4,4,0,0,1,3.12,1.5l10,12.56a4,4,0,0,0,3.12,1.5H156a4,4,0,0,1,4,4V140a4,4,0,0,1-4,4H4a4,4,0,0,1-4-4V4A4,4,0,0,1,4,0Z"/><path id="b-2" data-name="b" class="cls-2" d="M4,0H45.93a4,4,0,0,1,3.12,1.5l10,12.56a4,4,0,0,0,3.12,1.5H156a4,4,0,0,1,4,4V140a4,4,0,0,1-4,4H4a4,4,0,0,1-4-4V4A4,4,0,0,1,4,0Z"/></g></g></g></svg>