<svg xmlns="http://www.w3.org/2000/svg" width="633" height="666" viewBox="0 0 633 666">
    <defs>
        <linearGradient id="a" x1="1.823%" x2="88.686%" y1="12.061%" y2="79.928%">
            <stop offset="0%" stop-color="#4A55EE"/>
            <stop offset="100%" stop-color="#4587F7"/>
        </linearGradient>
    </defs>
    <g fill="none" fill-rule="evenodd" transform="translate(-12 -6)">
        <rect width="555" height="555" x="50.92" y="96.08" stroke="#EFF1F3" stroke-width="3" rx="53" transform="rotate(5 328.42 373.58)"/>
        <rect width="555" height="555" x="71.13" y="66.13" fill="#EFF1F3" fill-rule="nonzero" rx="53" transform="rotate(5 348.63 343.63)"/>
        <path stroke="#FF4362" stroke-width="6.8" d="M106.47 229.03c35.55 3.11 82.78-22.368 107.863-82.506 25.081-60.14 26.438-109.519-9.96-112.703C167.973 30.636 114.5 75.456 82.52 134.99c-31.978 59.536-11.601 90.93 23.948 94.04z" opacity=".5"/>
        <g transform="translate(-84 -3)">
            <path fill="#B093FF" fill-rule="nonzero" d="M724.623 188.963l-35.467 405.385c-2.551 29.16-28.258 50.73-57.418 48.179l-447.483-39.15c-19.973-1.747-36.536-14.414-44.047-31.784 55.426-14.346 101.49-33.93 138.19-58.75 24.316-16.443 55.374-118.299 45.946-152.95-12.3-45.205-70.613-113.46-103.748-157.041-15.422-20.284-5.327 16.353-18.06-1.58-20.298-28.59-52.433-53.885-50.82-72.318 6.463-73.877 154.692-63.986 210.774-37.207 56.08 26.78 236.738 76.36 312.319 82.972 19.23 1.683 35.835 6.43 49.814 14.244z"/>
            <path fill="url(#a)" fill-rule="nonzero" d="M727.602 155.126L689.175 594.35c-2.551 29.16-28.258 50.73-57.418 48.179l-447.522-39.153c-23.548-2.06-42.357-19.3-47.178-41.53 22.929-21.108 50.003-38.558 81.223-52.35 74.1-32.734 57.35-107.812 88.283-172.932 30.933-65.12-144.792-104.923-139.21-168.725 5.582-63.803 67.761-108.83 145.963-101.989 78.203 6.842 161.338 96.729 287.97 107.808 47.64 4.168 89.745-2.01 126.316-18.532z"/>
            <path stroke="#6228FF" stroke-width="7" d="M150.336 256.791c44.438 3.888 103.467-27.852 134.8-102.798 31.33-74.944 33.012-136.487-12.485-140.467-45.5-3.98-112.326 51.862-152.279 126.052S105.9 252.903 150.336 256.791z" opacity=".395"/>
            <path fill="#467EF5" fill-rule="nonzero" d="M373.866 204.996c7.548 2.315 15.725-4.508 18.265-15.239 2.54-10.73-4.329-18.869-15.342-18.18-11.012.69-19.19 7.514-18.264 15.24.925 7.726 7.794 15.866 15.34 18.18zm36.793-76.939c2.664.816 5.55-1.591 6.448-5.378.896-3.788-1.529-6.66-5.416-6.417-3.886.243-6.773 2.652-6.446 5.379.327 2.727 2.75 5.6 5.414 6.416z"/>
            <path fill="#A667FF" fill-rule="nonzero" d="M563.67 292.614c-31.912-2.792-55.516-30.924-52.725-62.834 2.792-31.911 30.923-55.516 62.835-52.725 31.91 2.792 55.516 30.924 52.724 62.835-2.792 31.91-30.924 55.516-62.834 52.724zm2.353-26.897c17.055 1.492 32.091-11.126 33.584-28.18 1.492-17.056-11.126-32.092-28.18-33.584-17.056-1.493-32.092 11.124-33.584 28.18-1.493 17.055 11.124 32.092 28.18 33.584z"/>
            <path fill="#09BAA6" fill-rule="nonzero" d="M464.904 229.83c-12.655-1.107-22.015-12.263-20.908-24.917 1.107-12.655 12.262-22.015 24.917-20.908 12.654 1.107 22.015 12.263 20.908 24.917-1.107 12.654-12.264 22.015-24.917 20.908zm.933-10.666c6.763.592 12.726-4.412 13.317-11.175.592-6.764-4.411-12.727-11.174-13.319-6.764-.591-12.727 4.412-13.319 11.176-.592 6.763 4.412 12.726 11.176 13.318z" opacity=".294"/>
            <path fill="#2127A2" fill-rule="nonzero" d="M238.438 605.377a1.361 1.361 0 0 0 1.86.27c10.311-7.329 28.315-22.427 35.959-42.828 2.672-7.117 10.603-10.732 17.722-8.075a13.701 13.701 0 0 1 7.21 6.21 13.722 13.722 0 0 1 .85 11.493c-3.954 10.548-12.63 23.534-26.027 38.958l50.134 4.384c4.2-3.677 7.464-8.912 9.794-15.707 3.496-10.192 10.248-11.069 17.448-8.644a13.7 13.7 0 0 1 7.633 6.356 13.712 13.712 0 0 1 1 11.072c-.739 2.18-2.152 5.41-4.242 9.688l15.57 1.366 38.83-46.583s1.888-3.772 3.83-10.416c5.897-20.15 12.334-66.733-31.637-114.798-8.36-9.135-17.408-15.991-26.91-20.95a1.36 1.36 0 0 0-1.977.924 77.472 77.472 0 0 0-.91 5.515c-1.874 14.728.608 28.38 7.371 40.58 4.638 8.368 6.802 16.125 7.42 23.083.519 5.782-2.535 10.798-7.076 13.315-3.03 1.68-6.719 2.241-10.442 1.175-5.494-1.57-9.403-6.37-9.916-12.06-.348-3.854-1.7-7.884-4.072-12.16-14.863-26.816-12.35-53.305-8.31-69.517-23.998-4.201-49.295.378-72.692 8.565a1.357 1.357 0 0 0-.47 2.28c10.79 9.941 23.274 24.237 34.2 43.95a197.8 197.8 0 0 1 8.915 18.262c2.981 6.985-.274 15.068-7.267 18.053-6.994 2.986-15.079-.258-18.058-7.243-11.037-25.866-25.68-42.77-36.026-52.392-4.549-4.23-8.692-7.473-12.016-9.834-30.805 15.331-54.35 33.45-60.573 38.418-.766.609-.65 1.793.212 2.258 37.14 20.07 39.882 82.925 72.663 125.032zm77.37-15.136c3.147 2.176 2.566 8.446-1.296 14.004-3.855 5.56-9.53 8.301-12.674 6.124-3.143-2.177-2.563-8.449 1.293-14.008 3.859-5.556 9.532-8.298 12.676-6.12zM307.64 455.34c-3.804.39-7.444-4.747-8.126-11.477-.678-6.725 1.854-12.495 5.664-12.882 3.804-.39 7.443 4.746 8.125 11.476.679 6.725-1.853 12.495-5.664 12.883zm-73.026 27.42l.168.3a3.492 3.492 0 0 1-1.365 4.747 3.492 3.492 0 0 1-4.749-1.359l-.166-.3a3.492 3.492 0 0 1 1.364-4.746 3.493 3.493 0 0 1 4.748 1.359v-.001zm-.594-11.73l.167.3a3.492 3.492 0 0 1-1.364 4.746 3.492 3.492 0 0 1-4.749-1.359l-.166-.3a3.492 3.492 0 0 1 1.364-4.747 3.492 3.492 0 0 1 4.748 1.36zm21.946 29.53l.166.3a3.492 3.492 0 0 1-1.363 4.747 3.492 3.492 0 0 1-4.75-1.359l-.166-.3a3.492 3.492 0 0 1 1.364-4.747 3.492 3.492 0 0 1 4.749 1.36zm8.423 38.63l.168.301a3.492 3.492 0 0 1-1.365 4.746 3.492 3.492 0 0 1-4.748-1.358l-.167-.3a3.492 3.492 0 0 1 1.364-4.747 3.492 3.492 0 0 1 4.748 1.358zm121.811-1.638l.167.3a3.492 3.492 0 0 1-1.365 4.747 3.492 3.492 0 0 1-4.748-1.359l-.166-.3a3.492 3.492 0 0 1 1.364-4.746 3.492 3.492 0 0 1 4.748 1.359v-.001zm-5.36-9.67l.166.3a3.492 3.492 0 0 1-1.364 4.747 3.492 3.492 0 0 1-4.748-1.359l-.167-.3a3.492 3.492 0 0 1 1.364-4.746 3.492 3.492 0 0 1 4.749 1.358z"/>
            <path fill="#02BFA6" fill-rule="nonzero" d="M479.606 301.011c-.871.547-1.173 1.62-.687 2.43 8.461 14.08 26.427 38.825 53.491 50.308 9.438 4.015 13.137 14.703 8.258 23.886-2.189 4.115-5.734 7.23-9.826 9.053-5.03 2.24-10.896 2.525-16.106.317-32.035-13.603-53.605-39.502-65.597-57.739-.664-1.008-2.217-1.043-3.073-.07-7.085 8.055-13.454 17.191-18.91 27.63a134.177 134.177 0 0 0-5.184 11.099c-.168.409-.177.85-.027 1.244 4.894 13.685 22.939 50.538 48.752 60.515 9.594 3.71 13.665 14.258 9.096 23.564-2.146 4.37-5.82 7.692-10.102 9.599-4.84 2.156-10.456 2.505-15.544.542-11.176-4.32-21.65-11.287-31.33-20.822-1.366-1.345-3.852.165-3.22 1.955 19.012 53.882 75.532 87.353 75.532 87.353s4.923 2.747 13.827 5.767c27.004 9.167 90.632 20.89 164.726-33.613 14.083-10.362-14.394-39.379-32.468-31.332-12.395 5.518-23.531 7.826-33.298 8.154-8.118.278-14.576-4.092-17.314-10.242-1.828-4.106-1.992-8.998.109-13.823 3.1-7.12 10.416-11.93 18.405-12.209 5.41-.186 11.235-1.685 17.572-4.506 39.722-17.687 40.196-16.834 62.04-10.387.059.02-.058-13.238 0-13.22 9.665-31.336-4.506-50.571-33.71-37.57a306.564 306.564 0 0 1-26.85 10.456c-10.2 3.435-20.885-1.413-23.865-10.825-2.98-9.41 2.874-19.823 13.074-23.256 37.766-12.717 63.687-30.806 78.778-43.747 6.633-5.69 11.83-10.916 15.663-15.125-16.156-41.607-37.395-73.855-43.257-82.391-.72-1.05-2.382-.979-3.172.12-34.073 47.472-121.83 46.69-185.783 86.885zm-11.117 100.186c-7.08-5.463-9.941-13.122-6.393-17.107 3.551-3.983 12.163-2.781 19.242 2.68 7.074 5.465 9.936 13.124 6.386 17.108-3.547 3.99-12.159 2.788-19.235-2.681zm182.064-96.651l-.446.198c-2.496 1.112-5.347.16-6.365-2.127-1.018-2.287.18-5.042 2.679-6.153l.445-.2c2.497-1.11 5.347-.159 6.366 2.128 1.017 2.287-.182 5.042-2.679 6.154zm16.392.038l-.445.198c-2.497 1.111-5.347.16-6.365-2.127-1.018-2.288.18-5.042 2.678-6.154l.446-.198c2.496-1.112 5.347-.16 6.365 2.127 1.018 2.287-.18 5.041-2.679 6.154zm-44.677 26.815l-.446.198c-2.496 1.111-5.347.16-6.365-2.127-1.018-2.288.181-5.042 2.679-6.153l.446-.199c2.496-1.112 5.347-.16 6.365 2.127 1.018 2.287-.181 5.041-2.679 6.154zm-55.06 8.386l-.446.199c-2.498 1.111-5.348.16-6.366-2.127-1.018-2.288.181-5.042 2.68-6.154l.444-.198c2.498-1.112 5.348-.16 6.365 2.127 1.019 2.286-.18 5.041-2.678 6.153zM549.165 500.19l-.445.198c-2.497 1.111-5.347.16-6.366-2.127-1.017-2.288.181-5.042 2.679-6.153l.446-.2c2.496-1.11 5.347-.159 6.364 2.128 1.019 2.287-.18 5.041-2.678 6.154zm14.325-6.379l-.445.198c-2.497 1.113-5.347.16-6.364-2.127-1.019-2.286.18-5.041 2.678-6.153l.445-.198c2.497-1.112 5.347-.16 6.366 2.127 1.017 2.286-.181 5.042-2.68 6.153z"/>
            <path fill="#02BFA6" fill-rule="nonzero" d="M502.657 616.312a5.386 5.386 0 0 1-1.875.459c-2.692.16-4.846-1.744-4.813-4.252.021-1.511.651-37.65 14.094-92.474 7.886-32.157 18.573-64.03 31.765-94.736 16.496-38.394 36.978-75.062 60.878-108.986 1.529-2.17 4.564-2.905 6.778-1.638 2.216 1.266 2.772 4.052 1.243 6.223-23.508 33.365-43.657 69.44-59.89 107.221-12.99 30.236-23.514 61.625-31.28 93.294-13.206 53.856-13.837 90.155-13.841 90.516-.025 1.89-1.286 3.584-3.058 4.373z"/>
            <path fill="#E9E1FF" fill-rule="nonzero" d="M333.48 149.384l169.808 219.101c6.429 8.295 4.916 20.23-3.378 26.657a19 19 0 0 1-1.384.977L425.28 443.08c-11.682 7.49-27.139 4.905-35.748-5.978L215.516 217.138c-8.566-10.828-6.733-26.55 4.096-35.117a25 25 0 0 1 4.464-2.822l76.134-37.496c11.508-5.668 25.414-2.457 33.27 7.682v-.001z"/>
            <path fill="#FFF" fill-rule="nonzero" d="M327.315 145.102l177.317 217.561c6.978 8.562 5.694 21.16-2.869 28.138a20 20 0 0 1-2.325 1.635l-75.575 45.466c-8.555 5.146-19.595 3.194-25.868-4.572L217.47 209.826c-6.94-8.593-5.601-21.185 2.992-28.127a20 20 0 0 1 3.599-2.317l78.781-39.522a20 20 0 0 1 24.472 5.242z"/>
            <ellipse cx="286.562" cy="166.693" fill="#4F2BB2" fill-rule="nonzero" rx="2.562" ry="2.566" transform="rotate(5 286.562 166.693)"/>
            <path fill="#09BAA6" fill-rule="nonzero" d="M231.354 217.239l104.017-53.68 153.535 188.578-98.862 60.894z"/>
            <path fill="#FF4362" fill-rule="nonzero" d="M413.203 333.865l37.012 20.378a4 4 0 0 1 .097 6.954l-32.328 18.974a4 4 0 0 1-5.996-2.977l-4.686-39.352a4 4 0 0 1 5.9-3.977z"/>
            <path fill="#E9E1FF" fill-rule="nonzero" d="M454.03 405.429c3.434.012 6.599-1.043 8.92-2.761 2.117-1.568 2.61-4.125 2.813-6.446.426-4.868-4.473-9.72-10.944-10.837-6.47-1.118-12.138 2.81-12.66 8.772-.521 5.961 5.305 11.247 11.87 11.272z"/>
            <path stroke="#4F2BB2" stroke-linecap="round" stroke-linejoin="round" stroke-width="3" d="M259.618 180.755l18.896-10.259"/>
            <path fill="#FBC4C3" fill-rule="nonzero" d="M523.354 633.18l-131.6-11.513c-3.862-36.333-6.55-58.626-8.061-66.879-2.394-13.072-4.422-37.688-14.504-51.111-10.083-13.423-56.893-70.256-63.649-77.6-6.755-7.343-7.996-22.566-10.502-34.36-2.505-11.797-28.541-67.134-31.259-72.837 2.917-3.925 5.61-5.298 3.643-12.222-1.967-6.926-14.293-20.437-14.116-22.46.177-2.021 12.615-.825 18.831 1.648 6.216 2.474 21.242 10.863 24.542 17.261 3.3 6.399 22.03 45.982 25.956 48.898 3.926 2.917 53.51 64.815 58.78 70.743 5.27 5.926 14.979 18.96 23.138 21.282 8.16 2.322 17.93.926 27.191-5.66 6.173-4.391 25.128-16.26 56.864-35.608 3.526 16.454 6.31 26.486 8.354 30.095 2.043 3.608 5.2 7.957 9.472 13.048 5.796 16.275 7.454 31.641 4.973 46.097-3.721 21.683-7.327 34.731-6.407 43.815 1.381 13.627 7.275 49.193 10.128 60.698 1.664 6.71 4.406 18.932 8.226 36.665z"/>
            <path fill="#FFF" fill-rule="nonzero" d="M263.78 318.58c2.952-1.886 4.392-4.868 4.32-8.948-.108-6.118-8.472-16.498-12.39-21.664-3.917-5.166-3.777-6.762-6.33-6.985-2.554-.224-5.775-.184-7.566 1.91-.833.975 1.352 8.225 8.914 19.431 2.185 3.237 6.535 8.655 13.051 16.256z"/>
            <path stroke="#F3A7A5" stroke-linecap="round" stroke-linejoin="round" stroke-width="2" d="M282.524 350.643c.944-.99 1.812-1.717 2.603-2.184 1.187-.7 2.074.181 3.352.293m-4.123 6.678c2.092.612 3.465.84 4.122.682.656-.156 1.582-.933 2.777-2.329"/>
            <path fill="#F3B5B4" fill-rule="nonzero" d="M420.616 443.709c-7.353 2.728 13.666 3.685 20.228 13.28 6.562 9.594 26.176 44.24 32.36 29.884 4.123-9.57 8.34-37.139 12.65-82.705-13.683 8.333-23.117 14.12-28.298 17.361-15.53 9.719-29.587 19.452-36.94 22.18z"/>
            <path fill="#FBC4C3" fill-rule="nonzero" d="M710.137 356.936l-12.058 137.821c-10.848-1.114-23.224-.861-32.754 1.14-10.809 2.27-13.07 2.395-18.202 2.267-5.133-.128-14.497.34-25.233-1.886-10.737-2.225-22.666-5.52-25.538-5.771-2.87-.251-13.192.132-19.254-.399-6.063-.53-15.841-2.671-18.338-3.533-2.497-.861-6.477-3.14-13.066-5.002-4.392-1.243-7.874-1.869-10.445-1.879-21.206-.14-34.681-.461-40.424-.964-3.394-.296-9.37-.177-14.733-.646-8.25-.722-16.003-2.043-18.13-2.229l-2.553-.223c8.89-1.153 13.857-4.04 14.905-8.665 1.57-6.937-1.046-17.457-3.833-18.665-2.788-1.21-10.098-2.17-16.563-1.77-4.31.265-7.548.518-9.712.757 6.283-5.668 12.177-9.332 17.68-10.995 8.256-2.493 17.732-4.236 27.36-4.038 9.627.2 35.733 3.127 44.931 4.574 9.197 1.449 12.33 2.366 17.604.898 5.272-1.469 16.83-4.96 19.287-7.317 2.457-2.357 5.22-8.227 3.574-15.123-1.648-6.897-5.68-15.932-12.626-21.042-2.788-2.05-6.424-4.637-10.374-6.374-5.897-2.594-12.328-3.973-16.34-4.324-6.7-.586-14.358-1.256-25.984-.666-11.625.59-26.01-.346-31.379-1.458-5.367-1.114-21.791-4.48-28.38-6.343-6.588-1.861-24.44-7.283-30.514-11.352-2.15-1.153-2.58-1.744-3.314-2.541-2.552-2.77-2.734-4.282-3.13-8.313-.09-3.867.16-6.74.754-8.617 7.609 3.667 12.718 5.294 15.326 4.878 3.913-.622 8.464-1.188 9.24-2.728.52-1.027.806-1.86.862-2.498 13.214 3.3 21.436 4.877 24.663 4.73 4.842-.218 21.713-1.958 25.07-3.594 3.358-1.636 29.107-1.956 36.086-4.561 6.98-2.605 26.25-6.065 36.84-13.178 10.589-7.112 29.544-17.995 32.903-19.63 3.358-1.636 8.602-2.786 17.188-1.713 8.587 1.072 15.104 7.432 17.656 7.655 2.552.223 6.689-2.952 8.922-2.757 2.234.195 4.814.1 8.738 3.016 3.925 2.915 9.165 9.163 10.441 9.274 1.276.112 2.318-.762 4.232-.594.763.067 16.968 11.526 48.615 34.378z"/>
            <path stroke="#F3B5B4" d="M535.44 479.65c-20.867-.111-34.172-.417-39.915-.92-3.394-.296-9.37-.177-14.733-.646-8.25-.722-16.003-2.043-18.13-2.229l-2.553-.223c8.89-1.153 13.857-4.04 14.905-8.665 1.57-6.937-1.046-17.457-3.833-18.665-2.788-1.21-10.098-2.17-16.563-1.77-4.31.265-7.548.518-9.712.757 6.283-5.668 12.177-9.332 17.68-10.995 8.256-2.493 17.732-4.236 27.36-4.038 9.627.2 31.51 2.179 40.706 3.626"/>
            <path fill="#FFF" fill-rule="nonzero" d="M448.461 447.338c4.9-.351 8.441-.49 10.623-.416 7.602.256 11.542 1.412 12.122 1.832 1.51 1.097 2.088 2.676 2.719 4.933.608 2.18 1.164 5.447 1.272 7.507.219 4.175-.683 6.686-1.683 8.215-2.004 3.06-6.685 5.116-14.043 6.167l-13.398-1.172c-6.873-.601-11.958-6.662-11.357-13.535a14.864 14.864 0 0 1 13.745-13.53zM416.858 341.61c2.651-.644 6.112-1.201 9.42-1.105 4.24.124 7.068.69 9.808 1.823 4.877 2.016 6.48 4.44-.85 6.036-3.727.811-7.15 1.015-10.35.701-2.018-.196-4.658-.594-6.644-1.223-1.058-.336-2.205-.514-3.135-.918-4.242-1.839-4.297-3.843 1.751-5.314z"/>
            <path stroke="#F3B5B4" stroke-linecap="round" stroke-linejoin="round" stroke-width="2" d="M505.078 444.251c-2.154 5.02-3.359 8.989-3.614 11.905-.255 2.915 1.362 6.487 4.85 10.713m3.16-17.73c.163 2.144.231 3.81.204 5.002-.027 1.19-.171 2.839-.433 4.946m5.612-12.693c1.477 2.719 2.067 5.772 1.77 9.159-.296 3.385-1.203 6.415-2.724 9.087m-15.305-119.036c-1 1.627-1.573 3.293-1.722 4.995-.15 1.702.589 3.053 2.216 4.053m3.362-9.032c1.165 1.387 1.691 2.72 1.58 3.997a6.728 6.728 0 0 1-1.264 3.427"/>
            <path fill="#12A897" fill-rule="nonzero" d="M320.385 216.39c26.228 1.03 42.501-1.555 42.592-2.594.091-1.04-19.083-1.986-44.382-2.62-25.3-.633-49.882 1.54-49.973 2.58-.091 1.04 25.535 1.602 51.763 2.632v.001z"/>
            <path fill="#10AA99" fill-rule="nonzero" d="M351.634 306.456c20.67.543 33.556-2.338 33.647-3.377.09-1.04-15.017-1.63-34.963-1.795-19.947-.165-39.378 2.46-39.47 3.5-.09 1.039 20.115 1.127 40.786 1.67v.002z"/>
            <path fill="#6234FF" stroke="#6234FF" d="M338.635 288.142a38.995 38.995 0 0 0 12.762 2.102c21.66-.04 39.856-15.798 40.387-35.635.482-18.043-14.263-35.091-33.705-40.658l-2.612-.671-4.609 3.74c11.167 2.25 20.112 6.487 26.152 12.656 6.67 6.816 10.625 16.632 10.354 25.252-.515 16.362-16.769 30.305-36.506 30.762-2.332.06-7.541-1.268-15.63-3.982l-2.22 3.982a38.259 38.259 0 0 0 3.513 1.655l2.114.797z"/>
            <path fill="#FF2952" stroke="#FF2952" d="M324.821 279.812l1.764 1.583a39.68 39.68 0 0 0 2.809 2.17l2.436-3.186a34.47 34.47 0 0 1-3.569-2.823l-1.194-1.13c-3.19-3.16-5.85-6.974-7.825-11.247l-.647-1.479a41.74 41.74 0 0 1-1.555-4.438l-3.736 1.383a43.92 43.92 0 0 0 1.069 3.242l.922 2.274c2.276 5.19 5.523 9.839 9.526 13.651z"/>
            <path fill="#2E4363" stroke="#2E4363" d="M312.058 256.828l5.15-1.063c-.435-3.76-.655-5.886-.66-6.379-.194-18.562 10.615-33.002 27.065-33.105l2.82.104 4.132-3.914a38.787 38.787 0 0 0-6.215-.269l-1.013.052c-18.48 1.215-32.11 13.808-32.11 36.314 0 2.85.277 5.603.831 8.26z"/>
            <path fill="#FF1D53" fill-rule="nonzero" d="M264.22 201.995l79.232 12.55a1.423 1.423 0 0 0 1.645-1.824l-28.218-78.24a1.559 1.559 0 0 0-2.646-.42l-51.01 65.679a1.423 1.423 0 0 0 .999 2.258l-.002-.003z"/>
            <path fill="#FFF" fill-rule="nonzero" d="M304.998 201.13c10.267 1.626 19.907-5.38 21.533-15.646 1.626-10.267-5.378-19.907-15.645-21.533-10.267-1.626-19.907 5.378-21.533 15.645-1.626 10.267 5.378 19.907 15.645 21.533"/>
            <path fill="#6328FF" fill-rule="nonzero" d="M320.713 177.33a5.176 5.176 0 0 1-3.085-8.534 10.777 10.777 0 1 0 5.938 8.174 5.154 5.154 0 0 1-2.853.36z"/>
        </g>
    </g>
</svg>
