<svg width="50px" height="40px" viewBox="0 0 50 40" version="1.1" xmlns="http://www.w3.org/2000/svg" xmlns:xlink="http://www.w3.org/1999/xlink">
  <!-- Generator: Sketch 51.2 (57519) - http://www.bohemiancoding.com/sketch -->
  <desc>Created with Sketch.</desc>
  <defs></defs>
  <g id="Page-1" stroke="none" stroke-width="1" fill="none" fill-rule="evenodd">
    <g id="17-creator-Showing-Media-3d" transform="translate(-75.000000, -12.000000)" fill-rule="nonzero">
      <g id="Group-10">
        <g id="Group-2" transform="translate(75.000000, 12.000000)">
          <g id="Group-15">
            <g id="Logo_Augmania">
              <path d="M4.09615385,38.6841379 L1.87637363,38.6841379 L1.50824176,39.7682759 L0,39.7682759 L2.17032967,33.862069 L3.81868132,33.862069 L5.98901099,39.7682759 L4.46428571,39.7682759 L4.09615385,38.6841379 Z M3.72802198,37.5806897 L2.99175824,35.3931034 L2.24725275,37.5806897 L3.72802198,37.5806897 Z"
                id="Shape" fill="#161616"></path>
              <path d="M7.93406593,33.8234483 L7.93406593,37.2413793 C7.91546177,37.5645089 8.01294371,37.883615 8.20879121,38.1406897 C8.40352878,38.3565987 8.68579462,38.4713945 8.97527473,38.4524138 C9.26475483,38.4713945 9.54702067,38.3565987 9.74175824,38.1406897 C9.93760574,37.883615 10.0350877,37.5645089 10.0164835,37.2413793 L10.0164835,33.8234483 L11.4478022,33.8234483 L11.4478022,37.2413793 C11.4642957,37.7346083 11.3515649,38.2235445 11.1208791,38.6593103 C10.9161022,39.0311138 10.605122,39.3328118 10.228022,39.5255172 C9.83142255,39.7233444 9.39332356,39.8226793 8.95054945,39.8151724 C8.51595784,39.8268897 8.085057,39.7322105 7.69505495,39.5393103 C7.32850429,39.345425 7.03021796,39.0430152 6.84065934,38.6731034 C6.61204808,38.2314014 6.49773629,37.7390599 6.50824176,37.2413793 L6.50824176,33.8234483 L7.93406593,33.8234483 Z"
                id="Shape" fill="#161616"></path>
              <path d="M16.989011,34.3117241 C17.4662554,34.6714026 17.7870334,35.2019872 17.8846154,35.7931034 L16.3681319,35.7931034 C16.2685527,35.5804838 16.1077879,35.4027187 15.9065934,35.2827586 C15.6804891,35.1522661 15.4227608,35.0873287 15.1620879,35.0951724 C14.7460236,35.0751407 14.3428684,35.2431424 14.0631868,35.5531034 C13.7752587,35.8999983 13.6289854,36.3435914 13.6538462,36.7944828 C13.6216765,37.2693885 13.7765721,37.7379798 14.0851648,38.0993103 C14.4122032,38.4182374 14.8582212,38.5835561 15.3131868,38.5544828 C15.9888788,38.5737275 16.5882423,38.1217726 16.7582418,37.4648276 L14.9532967,37.4648276 L14.9532967,36.4303448 L17.9615385,36.4303448 L17.9615385,37.8510345 C17.842404,38.2064053 17.6558141,38.5352257 17.4120879,38.8193103 C17.1576678,39.1242088 16.8410041,39.3706857 16.4835165,39.542069 C16.0730977,39.7323439 15.6250445,39.8266641 15.1730769,39.817931 C14.6266241,39.8303936 14.0865378,39.6981434 13.6071429,39.4344828 C13.1656024,39.1851678 12.8057635,38.8123388 12.5714286,38.3613793 C12.0859601,37.3697761 12.0859601,36.208155 12.5714286,35.2165517 C12.8046729,34.7666338 13.1624307,34.3939841 13.6016484,34.1434483 C14.0771338,33.8799589 14.6136469,33.7476552 15.1565934,33.76 C15.8123196,33.7344703 16.4578925,33.9285554 16.9917582,34.3117241"
                id="Shape" fill="#161616"></path>
              <polygon id="Shape" fill="#161616" points="25.4230769 33.8648276 25.4230769 39.7710345 23.9917582 39.7710345 23.9917582 36.0772414 22.717033 39.7710345 21.478022 39.7710345 20.1978022 36.0689655 20.1978022 39.7710345 18.7637363 39.7710345 18.7637363 33.8648276 20.5137363 33.8648276 22.1153846 37.977931 23.6813187 33.8648276"></polygon>
              <path d="M30.0824176,38.6841379 L27.8626374,38.6841379 L27.4945055,39.7682759 L25.9862637,39.7682759 L28.1565934,33.862069 L29.8049451,33.862069 L31.9752747,39.7682759 L30.4505495,39.7682759 L30.0824176,38.6841379 Z M29.7142857,37.5806897 L28.978022,35.3931034 L28.2335165,37.5806897 L29.7142857,37.5806897 Z"
                id="Shape" fill="#161616"></path>
              <polygon id="Shape" fill="#161616" points="37.7884615 39.7710345 36.3571429 39.7710345 33.9587912 36.1186207 33.9587912 39.7710345 32.5274725 39.7710345 32.5274725 33.8234483 33.9587912 33.8234483 36.3571429 37.5062069 36.3571429 33.8234483 37.7884615 33.8234483"></polygon>
              <rect id="Rectangle-path" fill="#161616" x="38.7774725" y="33.8234483" width="1.43131868" height="5.94758621"></rect>
              <path d="M44.8653846,38.6841379 L42.6456044,38.6841379 L42.2774725,39.7682759 L40.7692308,39.7682759 L42.9395604,33.862069 L44.5879121,33.862069 L46.7582418,39.7682759 L45.2335165,39.7682759 L44.8653846,38.6841379 Z M44.4972527,37.5806897 L43.760989,35.3931034 L43.0164835,37.5806897 L44.4972527,37.5806897 Z"
                id="Shape" fill="#161616"></path>
              <path d="M8.81868132,27.862069 L37.9395604,27.862069 C38.1227963,27.8708043 38.2968969,27.7812892 38.3969502,27.6268987 C38.4970035,27.4725081 38.5079941,27.2764124 38.4258242,27.1117241 L23.8653846,0.551724138 C23.7633345,0.379623795 23.5785931,0.274178628 23.3791209,0.274178628 C23.1796487,0.274178628 22.9949073,0.379623795 22.8928571,0.551724138 L8.33241758,27.1062069 C8.24749112,27.2713379 8.25705356,27.4694769 8.35748359,27.6255882 C8.45791362,27.7816995 8.63385617,27.8719146 8.81868132,27.862069 Z"
                id="Shape" fill="#FF1D53"></path>
              <path d="M23.3901099,25.2248276 C27.1635499,25.2248276 30.2225275,22.1531922 30.2225275,18.3641379 C30.2225275,14.5750837 27.1635499,11.5034483 23.3901099,11.5034483 C19.6166699,11.5034483 16.5576923,14.5750837 16.5576923,18.3641379 C16.5576923,22.1531922 19.6166699,25.2248276 23.3901099,25.2248276"
                id="Shape" fill="#FFFFFF"></path>
              <path d="M27.6730769,15.76 C26.9873754,15.7611675 26.3554799,15.3871943 26.0243686,14.7842487 C25.6932574,14.1813032 25.7155056,13.4451238 26.0824176,12.8634483 C24.3647045,12.3345894 22.5090699,13.0485498 21.5831062,14.5945703 C20.6571424,16.1405909 20.8989206,18.12118 22.1693398,19.3968561 C23.4397589,20.6725321 25.4121863,20.9153108 26.9518359,19.9855155 C28.4914854,19.0557202 29.2025036,17.1924071 28.6758242,15.4675862 C28.3759862,15.6586419 28.0281894,15.7600638 27.6730769,15.76 Z"
                id="Shape" fill="#6328FF"></path>
              <polygon id="Shape" fill="#000000" points="47.543956 32.7806897 47.543956 33.0786207 47.0274725 33.0786207 47.0274725 34.6593103 46.6538462 34.6593103 46.6538462 33.0786207 46.1401099 33.0786207 46.1401099 32.7806897"></polygon>
              <polygon id="Shape" fill="#000000" points="49.7692308 32.8027586 49.7692308 34.6593103 49.3983516 34.6593103 49.3983516 33.3627586 48.9230769 34.6593103 48.5989011 34.6593103 48.1263736 33.3682759 48.1263736 34.6593103 47.7527473 34.6593103 47.7527473 32.8027586 48.206044 32.8027586 48.7664835 34.1986207 49.3186813 32.8027586"></polygon>
            </g>
          </g>
        </g>
      </g>
    </g>
  </g>
</svg>