<svg xmlns="http://www.w3.org/2000/svg" width="70" height="64" viewBox="0 0 70 64">
    <g fill="none" fill-rule="nonzero">
        <path fill="#FF1D53" d="M1.324 63.694h66.847a1.186 1.186 0 0 0 1.116-1.716L35.864 1.261a1.3 1.3 0 0 0-2.232 0L.208 61.966a1.186 1.186 0 0 0 1.116 1.728z"/>
        <path fill="#FFF" d="M34.773 57.665c8.662 0 15.684-7.022 15.684-15.684 0-8.662-7.022-15.684-15.684-15.684-8.662 0-15.684 7.022-15.684 15.684 0 8.662 7.022 15.684 15.684 15.684"/>
        <path fill="#6328FF" d="M44.605 36.028a4.314 4.314 0 0 1-3.652-6.622 8.98 8.98 0 1 0 5.953 5.953 4.295 4.295 0 0 1-2.301.669z"/>
    </g>
</svg>
