<svg xmlns="http://www.w3.org/2000/svg" width="169" height="164" viewBox="0 0 169 164">
    <g fill="#EFF1F3" fill-rule="nonzero">
        <path d="M12 134h45v4H12zM12 124h45v4H12zM12 144h45v4H12zM12 37h4v5h-4zM12 48h4v5h-4zM16 30.999V26h-4v5h3.879zM21 26h5v4h-5zM32 26h5v4h-5zM43 26h5v4h-5zM54 26h5v4h-5zM55 82h4v5h-4zM12 105h5v4h-5zM23 105h5v4h-5zM55 93h4v5h-4zM59 104h-4v5h4zM44 105h5v4h-5zM34 105h5v4h-5zM88.67 128.728v2.129c0 4.817-3.882 8.744-8.695 8.849-4.799-.101-8.697-4.061-8.697-8.848V68H67v62.86c0 7.051 5.718 12.894 12.779 13.1v.01c.058 0 .115-.004.174-.004.072.002.145.004.219.004h42.241v14.772H90.036V163h36.655v-19.03h29.139c7.261 0 13.17-5.883 13.17-13.113v-2.13H88.67zm67.16 10.984H89.48a13.044 13.044 0 0 0 3.294-6.726h71.686a8.9 8.9 0 0 1-8.631 6.726z"/>
        <path d="M4.266 19.458h118.375v11.908H67.386v19.59h4.266v-15.3h80.082v83.79H156v-88.08h-29.093V0H0v164h83.149v-4.29H4.266V19.458zM113.746 4.29h8.895v10.878h-8.894V4.29zm-12.88 0h8.615v10.878h-8.614V4.29zm-96.6 0h92.335v10.878H4.266V4.29z"/>
        <path d="M110 113c15.99 0 29-13.01 29-29v-2.15h-26.851V55h-2.15C94.01 55 81 68.01 81 84s13.01 29 29 29zm24.609-26.85c-.714 8.235-5.487 15.324-12.301 19.258l-8.94-19.259h21.241zm-16.197 21.071a24.59 24.59 0 0 1-8.411 1.48c-5.6 0-10.77-1.876-14.917-5.029l14.333-15.825 8.995 19.374zM107.85 59.392v23.78L91.9 100.784C87.805 96.375 85.296 90.477 85.296 84c0-12.896 9.935-23.516 22.553-24.608z"/>
        <path d="M147 76.861C147 60.948 134.053 48 118.139 48H116v31h31v-2.139zm-26.722-2.139v-22.35c11.852 1.026 21.326 10.498 22.352 22.35h-22.352zM82.99 53.99c3.865 0 7.01-3.138 7.01-6.995S86.855 40 82.99 40c-3.866 0-7.011 3.138-7.011 6.995 0 .986.209 1.925.58 2.777L61.63 64.164a6.978 6.978 0 0 0-8.83.527L41.787 59.72a6.928 6.928 0 0 0 .249-1.818c0-3.857-3.145-6.995-7.011-6.995-3.864 0-7.01 3.138-7.01 6.995 0 1.075.252 2.09.688 3.002L16.645 72.526a6.986 6.986 0 0 0-2.634-.516C10.145 72.01 7 75.148 7 79.005S10.145 86 14.01 86c3.866 0 7.011-3.138 7.011-6.995 0-1.366-.4-2.636-1.08-3.714l11.693-11.273a6.986 6.986 0 0 0 7.788-.677l11.25 5.08a6.929 6.929 0 0 0-.144 1.411c0 3.857 3.145 6.995 7.01 6.995 3.865 0 7.011-3.138 7.011-6.995a6.97 6.97 0 0 0-.358-2.193l15.2-14.654a6.967 6.967 0 0 0 3.598 1.005zm0-9.717a2.728 2.728 0 0 1 2.728 2.722 2.728 2.728 0 0 1-5.457 0c0-1.5 1.224-2.722 2.728-2.722zM14.01 81.727a2.728 2.728 0 0 1-2.728-2.722 2.727 2.727 0 0 1 5.455 0c0 1.5-1.222 2.722-2.726 2.722zm21.014-21.104a2.728 2.728 0 0 1-2.728-2.722 2.728 2.728 0 0 1 5.456 0c0 1.5-1.224 2.722-2.728 2.722zm22.515 11.931a2.728 2.728 0 0 1-2.728-2.722 2.728 2.728 0 0 1 5.456 0 2.73 2.73 0 0 1-2.728 2.722z"/>
    </g>
</svg>
