<svg xmlns="http://www.w3.org/2000/svg" width="16" height="11" viewBox="0 0 16 11">
    <g fill="#CACFD7" fill-rule="nonzero">
        <path d="M7.992.01C4.575.01 1.6 2.157 0 5.34c1.599 3.182 4.575 5.328 7.992 5.328s6.394-2.146 7.992-5.328C14.386 2.157 11.41.01 7.992.01zm0 9.325c-2.572 0-5-1.515-6.474-3.996C2.992 2.857 5.42 1.343 7.992 1.343s5 1.514 6.475 3.996c-1.474 2.48-3.903 3.996-6.475 3.996z"/>
        <path d="M7.992 2.342a2.996 2.996 0 1 0 0 5.994 2.997 2.997 0 1 0 0-5.994zm0 4.662a1.665 1.665 0 1 1 0-3.33 1.665 1.665 0 0 1 0 3.33z"/>
    </g>
</svg>
