<?xml version="1.0" encoding="UTF-8"?><!DOCTYPE svg PUBLIC "-//W3C//DTD SVG 1.1//EN" "http://www.w3.org/Graphics/SVG/1.1/DTD/svg11.dtd"><svg xmlns="http://www.w3.org/2000/svg">
<symbol id="icon-3-d" viewBox="0 0 26 28">
    <g fill-rule="evenodd">
        <path fill="#FFF" fill-rule="nonzero" stroke="#FFF" stroke-width=".6" d="M11.88 15.36c0 1.12-.8 2.08-2.56 2.08-.96 0-1.92-.32-2.48-.8l.48-.72c.48.4 1.2.72 2 .72 1.04 0 1.6-.48 1.6-1.2s-.48-1.2-1.68-1.2h-.56v-.64l1.68-2.08h-3.2v-.8h4.4v.64L9.8 13.44c1.36.08 2.08.88 2.08 1.92zm1.44-4.72h2.8c2.16 0 3.6 1.36 3.6 3.36 0 2-1.44 3.36-3.6 3.36h-2.8v-6.72zm2.72 5.84c1.68 0 2.72-1.04 2.72-2.56s-1.04-2.56-2.72-2.56H14.2v5.04h1.84v.08zm-3.2 9.92C6.04 26.4.44 20.8.44 14c0-.24.16-.4.4-.4.24 0 .4.16.4.4 0 5.92 4.48 10.88 10.24 11.52l-1.2-.8c-.16-.16-.24-.4-.08-.56.16-.16.4-.24.56-.08L13 25.76c.16.08.16.32.16.48 0 .08-.16.16-.32.16z"/>
        <path fill="#FFF" fill-rule="nonzero" stroke="#FFF" stroke-width=".6" d="M10.2 27.52a.44.44 0 0 1-.4-.24c-.08-.24 0-.4.24-.56l2.64-1.12c.24-.08.4 0 .56.24.08.24 0 .4-.24.56l-2.64 1.12h-.16zM24.84 14.4c-.24 0-.4-.16-.4-.4 0-5.92-4.48-10.88-10.24-11.52l1.2.8c.16.16.24.4.08.56-.16.16-.4.24-.56.08l-2.24-1.68c-.16-.08-.16-.32-.16-.48a.44.44 0 0 1 .4-.24c6.8 0 12.4 5.6 12.4 12.4-.08.32-.24.48-.48.48z"/>
        <path fill="#FFF" fill-rule="nonzero" stroke="#FFF" stroke-width=".6" d="M12.84 2.4a.44.44 0 0 1-.4-.24c-.08-.24 0-.4.24-.56L15.32.48c.24-.08.4 0 .56.24.16.24 0 .4-.24.56L13 2.4h-.16z"/>
        <path d="M-3-2h32v32H-3z"/>
    </g>
</symbol>
<symbol id="icon-analytics" viewBox="0 0 19 14">
    <g fill-rule="evenodd">
        <g fill-rule="nonzero">
            <path d="M1.333 11.785V.007H0v13.111h18.667v-1.333z"/>
            <path d="M16.889 1.118a.89.89 0 0 0-.889.889c0 .02.002.039.003.058l-3.648 4.742-3.473-3.125a.89.89 0 0 0-1.77.103c0 .02 0 .039.002.058L3.385 8.69a.89.89 0 1 0 1.06.872c0-.02-.002-.038-.004-.058L8.09 4.762l3.473 3.125a.89.89 0 0 0 1.771-.102c0-.02-.001-.04-.003-.059l3.73-4.847a.89.89 0 0 0-.17-1.761z"/>
        </g>
    </g>
</symbol>
<symbol id="icon-animation" viewBox="0 0 26 26">
    <g fill-rule="evenodd">
        <path fill="#FFF" fill-rule="nonzero" stroke="#FFF" stroke-width=".6" d="M13 1.8c6.16 0 11.2 5.04 11.2 11.2 0 6.16-5.04 11.2-11.2 11.2-6.16 0-11.2-5.04-11.2-11.2C1.8 6.84 6.84 1.8 13 1.8zm0-.8C6.36 1 1 6.36 1 13s5.36 12 12 12 12-5.36 12-12S19.64 1 13 1z"/>
        <path fill="#FFF" fill-rule="nonzero" stroke="#FFF" stroke-width=".6" d="M10.6 7.88l7.84 4.64c.08.08.16.16.16.24 0 .08 0 .16-.16.24l-7.84 5.04V7.88zm0-.8c-.4 0-.8.32-.8.8v10.16c0 .48.4.8.8.8.16 0 .24 0 .4-.08l7.84-5.04c.64-.4.64-1.44 0-1.84L11 7.24a.611.611 0 0 0-.4-.16z"/>
        <path d="M-3-3h32v32H-3z"/>
    </g>
</symbol>
<symbol id="icon-archive" viewBox="0 0 18 14">
    <path stroke-width=".3" d="M10.266 2.328V1.005H2.678v2.906H1l1.757 9.584H17V2.328h-6.734zM3.548 12.545L2.139 4.861h12.408l1.408 7.684H3.548zM16.05 7.796l-.712-3.885H3.628V1.955h5.688v1.323h6.734v4.518z"/>
</symbol>
<symbol id="icon-assets" viewBox="0 0 16 16">
    <path d="M12.603 6.16l3.381-1.83L7.992 0 0 4.33l3.382 1.83L0 7.993l3.382 1.832L0 11.655l7.992 4.33 7.992-4.33-3.381-1.831 3.381-1.832-3.381-1.831zM2.797 4.33l5.195-2.815 5.196 2.814-5.196 2.814L2.797 4.33zm10.39 7.325L7.993 14.47l-5.195-2.814 1.982-1.074 3.213 1.74 3.212-1.74 1.984 1.074zm-5.195-.848L2.797 7.992l1.982-1.074 3.213 1.74 3.212-1.74 1.984 1.074-5.196 2.815z"/>
</symbol>
<symbol id="icon-audio" viewBox="0 0 22 24">
    <g fill-rule="evenodd">
        <path fill="#FFF" fill-rule="nonzero" stroke="#FFF" stroke-width=".6" d="M4.64 19.68c1.6 0 2.64.8 2.64 1.52s-1.12 1.52-2.64 1.52S2 21.92 2 21.2s1.04-1.52 2.64-1.52zm0-.8c-1.92 0-3.44 1.04-3.44 2.32 0 1.28 1.52 2.32 3.44 2.32s3.44-1.04 3.44-2.32c0-1.28-1.52-2.32-3.44-2.32zm13.04-2.32c1.6 0 2.64.8 2.64 1.52s-1.12 1.52-2.64 1.52-2.64-.8-2.64-1.52 1.12-1.52 2.64-1.52zm0-.8c-1.92 0-3.44 1.04-3.44 2.32 0 1.28 1.52 2.32 3.44 2.32s3.44-1.04 3.44-2.32c.08-1.28-1.52-2.32-3.44-2.32z"/>
        <path fill="#FFF" fill-rule="nonzero" stroke="#FFF" stroke-width=".6" d="M7.68 21.6c-.24 0-.4-.16-.4-.4V4.4c0-.16.16-.32.32-.4L20.64.56c.16 0 .24 0 .32.08.08.08.16.16.16.32v16.72c0 .24-.16.4-.4.4-.24 0-.4-.16-.4-.4V1.44L8.08 4.64v16.48c0 .32-.16.48-.4.48z"/>
        <path fill="#FFF" fill-rule="nonzero" stroke="#FFF" stroke-width=".6" d="M7.68 7.68c-.16 0-.32-.08-.4-.32-.08-.24.08-.4.32-.48l13.04-3.44c.24-.08.4.08.48.32.08.24-.08.4-.32.48L7.76 7.68h-.08z"/>
        <path d="M-4-4h32v32H-4z"/>
    </g>
</symbol>
<symbol id="icon-billing" viewBox="0 0 16 16">
    <path d="M14.714.412C14.062.146 13.21 0 12.312 0c-.897 0-1.75.146-2.401.412-.735.3-1.06.686-1.195 1.015a.622.622 0 0 0-.091.323v5.056a8.027 8.027 0 0 0-1.25 0V4.25a.622.622 0 0 0-.09-.323c-.137-.329-.461-.715-1.196-1.015-.652-.266-1.504-.412-2.402-.412-.897 0-1.75.146-2.401.412C.167 3.37 0 4.025 0 4.375v7.375c0 .35.167 1.006 1.286 1.463.651.266 1.504.412 2.402.412.212 0 .421-.008.627-.024.022.362.235.965 1.283 1.393.652.266 1.505.412 2.402.412.897 0 1.75-.146 2.402-.412 1.118-.457 1.286-1.113 1.286-1.463v-.024c.204.016.413.024.624.024.898 0 1.75-.146 2.402-.412C15.833 12.662 16 12.006 16 11.656V1.875c0-.35-.167-1.006-1.286-1.463zM3.687 3.75c1.495 0 2.335.453 2.438.645v2.621a4.783 4.783 0 0 0-.527.178c-.38.155-.65.333-.84.514a.624.624 0 0 0-.555-.259c-.169.013-.342.02-.516.02-1.494 0-2.334-.453-2.437-.645V5.822l.036.016c.651.266 1.504.412 2.402.412.204 0 .41-.008.61-.023a.625.625 0 1 0-.095-1.246A6.767 6.767 0 0 1 3.687 5c-1.444 0-2.278-.423-2.424-.625.146-.202.98-.625 2.425-.625zM1.25 8.291l.036.015c.651.266 1.504.413 2.402.413.204 0 .41-.008.61-.023l.015-.002.001.022-.002.034v1.19a6.742 6.742 0 0 1-.625.029c-1.494 0-2.334-.453-2.437-.645V8.29zm0 3.44v-.94l.036.015c.651.266 1.504.413 2.402.413.211 0 .42-.009.624-.025v1.152a6.742 6.742 0 0 1-.625.029c-1.494 0-2.334-.453-2.437-.645zm9.188 1.78c-.104.193-.944.645-2.438.645-1.494 0-2.334-.452-2.438-.645V12.51l.036.015c.652.266 1.505.412 2.402.412.205 0 .41-.007.61-.022a.625.625 0 1 0-.095-1.247c-.168.013-.342.02-.515.02-1.494 0-2.335-.453-2.438-.645v-.94l.036.016c.652.266 1.505.412 2.402.412.205 0 .41-.007.61-.023a.625.625 0 1 0-.095-1.246c-.168.013-.342.02-.515.02-1.445 0-2.278-.424-2.425-.626.147-.201.98-.625 2.425-.625 1.496 0 2.336.454 2.438.646l.002.025a.615.615 0 0 0-.002.048v4.761zm1.874-1.23c-.213 0-.421-.01-.624-.029v-1.15a8.102 8.102 0 0 0 1.234 0 .625.625 0 1 0-.094-1.246 6.821 6.821 0 0 1-1.14-.01V8.75c0-.016-.002-.031-.003-.047v-.009a8.017 8.017 0 0 0 1.237.002.625.625 0 0 0-.094-1.247c-.169.013-.342.02-.515.02-1.495 0-2.335-.453-2.438-.645V5.79l.036.015c.652.266 1.504.413 2.402.413.204 0 .41-.008.61-.023a.625.625 0 1 0-.095-1.247c-.169.013-.342.02-.515.02-1.495 0-2.335-.453-2.438-.645V3.322l.036.016c.652.266 1.504.412 2.402.412.204 0 .41-.008.61-.023a.625.625 0 1 0-.095-1.246 6.74 6.74 0 0 1-.515.019c-1.445 0-2.279-.423-2.425-.625.146-.202.98-.625 2.425-.625 1.494 0 2.334.453 2.437.645v9.741c-.103.193-.943.645-2.438.645z"/>
</symbol>
<symbol id="icon-button" viewBox="0 0 16 22">
    <g fill-rule="evenodd">
        <path fill="#FFF" fill-rule="nonzero" stroke="#FFF" stroke-width=".6" d="M13.6 11.28c-.32 0-.64.08-.96.32-.24-.64-.8-1.04-1.52-1.04-.32 0-.64.08-.96.32-.24-.64-.8-1.04-1.52-1.04-.32 0-.56.08-.8.24V6.32c0-.4-.16-.8-.48-1.12a1.58 1.58 0 0 0-1.12-.48c-.88 0-1.6.72-1.6 1.6v8.32l-1.12-1.12c-.56-.56-1.44-.64-2.08-.16-.32.24-.64.64-.64 1.12-.08.48.08.96.4 1.28l3.28 4c.96 1.2 2.48 1.92 4 1.92h2.08c1.2 0 2.4-.48 3.28-1.36.88-.88 1.36-2 1.36-3.28v-4.16c0-.88-.72-1.6-1.6-1.6zm.72 5.68c.08 1.04-.32 2-1.04 2.72a3.81 3.81 0 0 1-2.72 1.12H8.48c-1.36 0-2.56-.56-3.44-1.6l-3.28-4a.622.622 0 0 1-.16-.64c0-.24.16-.48.32-.56.16-.08.32-.16.48-.16.24 0 .4.08.56.24l1.36 1.36c.24.16.48.24.72.16.24-.08.4-.32.4-.64V6.32c0-.48.4-.8.8-.8.24 0 .4.08.56.24.16.16.24.32.24.56v5.92c0 .24.16.4.4.4.24 0 .4-.16.4-.4v-.8c0-.48.4-.8.8-.8s.8.4.8.8v1.52c0 .24.16.4.4.4.24 0 .4-.16.4-.4v-.8c0-.48.4-.8.8-.8.48 0 .8.4.8.8v1.52c0 .24.16.4.4.4.24 0 .4-.16.4-.4V12.88c0-.48.4-.8.8-.8.48 0 .8.4.8.8v4.08h.08z"/>
        <path fill="#FFF" fill-rule="nonzero" stroke="#FFF" stroke-width=".6" d="M9.44 8.32c-.08 0-.16 0-.24-.08a.493.493 0 0 1-.08-.56c.48-.64.8-1.44.8-2.24 0-2-1.6-3.6-3.6-3.6s-3.6 1.6-3.6 3.6c0 .8.24 1.6.72 2.24.16.16.08.4-.08.56-.16.16-.4.08-.56-.08-.64-.8-.88-1.68-.88-2.72 0-2.4 2-4.4 4.4-4.4 2.4 0 4.4 2 4.4 4.4 0 .96-.32 2-.96 2.72-.08.08-.16.16-.32.16z"/>
        <path d="M-8-4h32v32H-8z"/>
    </g>
</symbol>
<symbol id="icon-campaigns" viewBox="0 0 16 16">
    <path d="M0 0v7.326h7.326V0H0zm5.994 5.994H1.332V1.332h4.662v4.662zm8.658 2.664H9.99c-.732 0-1.332.6-1.332 1.332v4.662c0 .733.6 1.332 1.332 1.332h4.662c.733 0 1.332-.6 1.332-1.332V9.99c0-.732-.6-1.332-1.332-1.332zm0 5.994H9.99V9.99h4.662v4.662zM12.321 0a3.663 3.663 0 1 0 .001 7.327 3.663 3.663 0 0 0 0-7.327zm0 5.994a2.331 2.331 0 1 1 .001-4.663 2.331 2.331 0 0 1 0 4.663zM3.996 8.658L0 15.984h7.992L3.996 8.658zm0 2.782l1.752 3.212H2.244l1.752-3.212z"/>
</symbol>
<symbol id="icon-copy" viewBox="0 0 16 16">
    <g fill-rule="evenodd">
        <path fill-rule="nonzero" d="M1.332 2.664h1.332V1.332C2.664.599 3.264 0 3.996 0h10.656c.733 0 1.332.6 1.332 1.332v10.656c0 .733-.6 1.332-1.332 1.332H13.32v1.332c0 .733-.6 1.332-1.332 1.332H1.332C.6 15.984 0 15.384 0 14.652V3.996c0-.733.6-1.332 1.332-1.332zm13.32 9.324v-10.7H3.996v10.7h10.656zm-2.664 2.664V13.32H3.996c-.732 0-1.332-.6-1.332-1.332V4.006H1.332v10.646h10.656z"/>
    </g>
</symbol>
<symbol id="icon-delete" viewBox="0 0 14 16">
    <g fill-rule="evenodd">
        <g fill-rule="nonzero">
            <path d="M6.411 7.992h1.165v5.329H6.411zm-2.332 0h1.166v5.329H4.079zm4.663 0h1.166v5.329H8.742z"/>
            <path d="M12.82 2.664H9.908V1.332C9.907.6 9.382 0 8.742 0H5.245c-.64 0-1.166.6-1.166 1.332v1.332H1.166C.525 2.664 0 3.264 0 3.996V6.66h1.166v7.993c0 .732.524 1.332 1.165 1.332h9.325c.64 0 1.165-.6 1.165-1.332V6.66h1.166V3.996c0-.733-.525-1.332-1.166-1.332zM5.246 1.332h3.497v1.332H5.245V1.332zm6.41 13.32H2.332V6.66h9.325v7.993zm1.166-9.324H1.166V3.996H12.82v1.332z"/>
        </g>
    </g>
</symbol>
<symbol id="icon-down" viewBox="0 0 9 6">
    <path fill-rule="evenodd" d="M8.47 1.47L7.53.53 4.47 3.583 1.41.53l-.94.94 4 4z"/>
</symbol>
<symbol id="icon-help" viewBox="0 0 16 16">
    <g>
        <path d="M8 0C3.578 0 0 3.578 0 8c0 4.422 3.578 8 8 8 4.422 0 8-3.578 8-8 0-4.422-3.578-8-8-8zm0 14.884A6.892 6.892 0 0 1 1.116 8 6.892 6.892 0 0 1 8 1.116 6.891 6.891 0 0 1 14.884 8 6.891 6.891 0 0 1 8 14.884z"/>
        <path d="M7.763 10.123c-.442 0-.8.368-.8.81 0 .432.347.811.8.811a.818.818 0 0 0 .811-.81.818.818 0 0 0-.81-.811zm.137-6.14c-1.421 0-2.074.843-2.074 1.411 0 .411.347.6.631.6.57 0 .337-.81 1.412-.81.526 0 .947.232.947.716 0 .569-.59.895-.937 1.19-.305.263-.705.695-.705 1.6 0 .548.147.706.579.706.516 0 .621-.232.621-.432 0-.547.01-.863.59-1.316.284-.221 1.18-.937 1.18-1.927S9.247 3.983 7.9 3.983z"/>
    </g>
</symbol>
<symbol id="icon-hide" viewBox="0 0 16 12">
    <g>
        <path d="M0-2h16v16H0z"/>
        <path d="M12.74 2.188L13.986.942 13.044 0l-1.49 1.491A8.139 8.139 0 0 0 7.991.666C4.575.666 1.6 2.812 0 5.994.786 7.558 1.904 8.87 3.244 9.8l-1.246 1.247.942.941 1.491-1.491a8.13 8.13 0 0 0 3.561.825c3.417 0 6.394-2.145 7.992-5.328C15.2 4.43 14.08 3.12 12.74 2.188zM4.214 8.83a8.573 8.573 0 0 1-2.696-2.836C2.992 3.513 5.42 1.998 7.992 1.998a6.73 6.73 0 0 1 2.538.516l-.948.949a2.97 2.97 0 0 0-1.59-.466 2.996 2.996 0 0 0-2.997 2.997c0 .586.174 1.129.466 1.59L4.214 8.83zM9.54 5.39c.074.188.118.39.118.605 0 .92-.745 1.665-1.665 1.665-.214 0-.417-.044-.605-.118L9.539 5.39zM6.446 6.6a1.657 1.657 0 0 1-.118-.605c0-.92.746-1.665 1.665-1.665.215 0 .418.045.606.118L6.445 6.6zm1.546 3.39a6.744 6.744 0 0 1-2.538-.516l.949-.948c.46.29 1.003.465 1.59.465a2.997 2.997 0 0 0 2.996-2.997 2.98 2.98 0 0 0-.465-1.59l1.246-1.246a8.585 8.585 0 0 1 2.697 2.836C12.993 8.475 10.564 9.99 7.992 9.99z"/>
    </g>
</symbol>
<symbol id="icon-html-5" viewBox="0 0 24 20">
    <g fill-rule="evenodd">
        <path fill="#FFF" fill-rule="nonzero" stroke="#FFF" stroke-width=".6" d="M7.44 15.12c-.08 0-.16 0-.24-.08L.48 10.32C.4 10.24.32 10.16.32 10s.08-.24.16-.32L7.2 4.96c.16-.16.4-.08.56.08.16.16.08.4-.08.56L1.44 10l6.24 4.4c.16.16.24.4.08.56-.08.08-.16.16-.32.16zm9.04 0c-.16 0-.24-.08-.32-.16-.16-.16-.08-.4.08-.56l6.24-4.4-6.24-4.4c-.16-.16-.24-.4-.08-.56.16-.16.4-.24.56-.08l6.72 4.72c.08.08.16.16.16.32s-.08.24-.16.32l-6.72 4.72c-.08.08-.16.08-.24.08zm-7.76 4h-.16c-.24-.08-.32-.32-.24-.48l6.48-17.2c.08-.24.32-.32.48-.24.24.08.32.32.24.48l-6.48 17.2c0 .16-.16.24-.32.24z"/>
        <path d="M-4-6h32v32H-4z"/>
    </g>
</symbol>
<symbol id="icon-image-360" viewBox="0 0 26 23">
    <g fill-rule="evenodd">
        <path fill="#FFF" fill-rule="nonzero" stroke="#FFF" stroke-width=".6" d="M1 5.4h1v12.08H1zm23.2 0h1v12.08h-1zm-4 3.04h1v12.08h-1zM5 8.44h1v12.08H5z"/>
        <path fill="#FFF" fill-rule="nonzero" stroke="#FFF" stroke-width=".6" d="M13 .6C6.36.6 1 2.76 1 5.4c0 1.44 1.6 2.8 4.16 3.68.16.08.32.08.56.16v-.8c-.08 0-.16-.08-.24-.08C3.24 7.48 1.8 6.44 1.8 5.4c0-1.92 4.56-4 11.2-4s11.2 2.08 11.2 4c0 1.04-1.52 2.24-4 3.04v.8c.08 0 .16-.08.24-.08C23.24 8.28 25 6.92 25 5.4 25 2.76 19.64.6 13 .6zm11.76 15.68v1.2h-.56c-.24 1.84-4.8 3.84-11.2 3.84-6.64 0-11.2-2.08-11.2-4h-.64v-.72c-.08.24-.16.48-.16.72 0 2.64 5.36 4.8 12 4.8s12-2.16 12-4.8c0-.32-.08-.72-.24-1.04z"/>
        <path fill="#FFF" fill-rule="nonzero" stroke="#FFF" stroke-width=".6" d="M6.6 7.4c-.72 0-1.36-.64-1.36-1.36 0-.72.64-1.36 1.36-1.36.72 0 1.36.64 1.36 1.36 0 .72-.64 1.36-1.36 1.36zM13 7c1.36 0 2.4 1.04 2.4 2.4 0 1.36-1.04 2.4-2.4 2.4-1.36 0-2.4-1.04-2.4-2.4C10.6 8.04 11.64 7 13 7zm0-.8a3.21 3.21 0 0 0-3.2 3.2c0 1.76 1.44 3.2 3.2 3.2 1.76 0 3.2-1.44 3.2-3.2 0-1.76-1.44-3.2-3.2-3.2z"/>
        <path fill="#FFF" fill-rule="nonzero" stroke="#FFF" stroke-width=".6" d="M13 12.6c2.64 0 4.72 2.08 4.72 4.72h.8c0-3.04-2.48-5.52-5.52-5.52-3.04 0-5.52 2.48-5.52 5.52h.8c0-2.64 2.08-4.72 4.72-4.72zm-5.68.48c-.72.16-1.36.32-2 .56v.8c.56-.24 1.28-.4 2-.56v-.8zm11.2 0v.8c.72.16 1.44.32 2.08.56v-.8c-.64-.24-1.36-.4-2.08-.56z"/>
        <path d="M-3-5h32v32H-3z"/>
    </g>
</symbol>
<symbol id="icon-image" viewBox="0 0 26 26">
    <g fill-rule="evenodd">
        <path fill="#FFF" fill-rule="nonzero" stroke="#FFF" stroke-width=".6" d="M21.8 1.8c1.36 0 2.4 1.04 2.4 2.4v17.6c0 1.36-1.04 2.4-2.4 2.4H4.2c-1.36 0-2.4-1.04-2.4-2.4V4.2c0-1.36 1.04-2.4 2.4-2.4h17.6zm0-.8H4.2A3.21 3.21 0 0 0 1 4.2v17.6C1 23.56 2.44 25 4.2 25h17.6c1.76 0 3.2-1.44 3.2-3.2V4.2C25 2.44 23.56 1 21.8 1z"/>
        <path fill="#FFF" fill-rule="nonzero" stroke="#FFF" stroke-width=".6" d="M18.52 5.56c1.04 0 1.84.8 1.84 1.84s-.8 1.84-1.84 1.84-1.84-.8-1.84-1.84.8-1.84 1.84-1.84zm0-.8c-1.44 0-2.64 1.2-2.64 2.64 0 1.44 1.2 2.64 2.64 2.64 1.44 0 2.64-1.2 2.64-2.64 0-1.44-1.2-2.64-2.64-2.64zM3.64 19.8c-.08 0-.16 0-.24-.08-.16-.16-.24-.4-.08-.56l6-8.24c.08-.08.16-.16.32-.16.08 0 .24 0 .32.08l8.24 8.24c.16.16.16.4 0 .56-.16.16-.4.16-.56 0l-7.92-7.92-5.76 7.92c-.08.08-.16.16-.32.16z"/>
        <path fill="#FFF" fill-rule="nonzero" stroke="#FFF" stroke-width=".6" d="M21.8 17.56c-.08 0-.24 0-.32-.08l-3.76-3.84-2.32 3.04c-.16.16-.4.24-.56.08-.16-.16-.24-.4-.08-.56l2.64-3.44c.08-.08.16-.16.32-.16s.24 0 .32.08l4.08 4.16c.16.16.16.4 0 .56-.08.08-.24.16-.32.16z"/>
        <path d="M-3-3h32v32H-3z"/>
    </g>
</symbol>
<symbol id="icon-image-red" viewBox="0 0 26 26">
    <g fill-rule="evenodd">
        <path fill="#ff4362" fill-rule="nonzero" stroke="#ff4362" stroke-width=".6" d="M21.8 1.8c1.36 0 2.4 1.04 2.4 2.4v17.6c0 1.36-1.04 2.4-2.4 2.4H4.2c-1.36 0-2.4-1.04-2.4-2.4V4.2c0-1.36 1.04-2.4 2.4-2.4h17.6zm0-.8H4.2A3.21 3.21 0 0 0 1 4.2v17.6C1 23.56 2.44 25 4.2 25h17.6c1.76 0 3.2-1.44 3.2-3.2V4.2C25 2.44 23.56 1 21.8 1z"/>
        <path fill="#ff4362" fill-rule="nonzero" stroke="#ff4362" stroke-width=".6" d="M18.52 5.56c1.04 0 1.84.8 1.84 1.84s-.8 1.84-1.84 1.84-1.84-.8-1.84-1.84.8-1.84 1.84-1.84zm0-.8c-1.44 0-2.64 1.2-2.64 2.64 0 1.44 1.2 2.64 2.64 2.64 1.44 0 2.64-1.2 2.64-2.64 0-1.44-1.2-2.64-2.64-2.64zM3.64 19.8c-.08 0-.16 0-.24-.08-.16-.16-.24-.4-.08-.56l6-8.24c.08-.08.16-.16.32-.16.08 0 .24 0 .32.08l8.24 8.24c.16.16.16.4 0 .56-.16.16-.4.16-.56 0l-7.92-7.92-5.76 7.92c-.08.08-.16.16-.32.16z"/>
        <path fill="#ff4362" fill-rule="nonzero" stroke="#ff4362" stroke-width=".6" d="M21.8 17.56c-.08 0-.24 0-.32-.08l-3.76-3.84-2.32 3.04c-.16.16-.4.24-.56.08-.16-.16-.24-.4-.08-.56l2.64-3.44c.08-.08.16-.16.32-.16s.24 0 .32.08l4.08 4.16c.16.16.16.4 0 .56-.08.08-.24.16-.32.16z"/>
        <path d="M-3-3h32v32H-3z"/>
    </g>
</symbol>
<symbol id="icon-location" viewBox="0 0 20 26">
    <g fill-rule="evenodd">
        <path fill="#FFF" fill-rule="nonzero" stroke="#FFF" stroke-width=".6" d="M10 6.8c1.04 0 2.08.4 2.8 1.2 1.52 1.52 1.52 4.08 0 5.68-.72.72-1.76 1.12-2.8 1.12-1.04 0-2.08-.4-2.8-1.2-1.52-1.52-1.52-4.08 0-5.68.72-.64 1.76-1.12 2.8-1.12zm0-.8c-1.2 0-2.48.48-3.36 1.44-1.84 1.84-1.84 4.88 0 6.8.96.96 2.16 1.44 3.36 1.44 1.2 0 2.48-.48 3.36-1.44 1.84-1.84 1.84-4.88 0-6.8C12.48 6.48 11.2 6 10 6z"/>
        <path fill="#FFF" fill-rule="nonzero" stroke="#FFF" stroke-width=".6" d="M10 2.019c2 0 3.92.591 5.44 1.774 2.64 1.921 3.84 5.099 3.12 8.129v.074c-.8 4.508-3.6 8.646-8.56 12.785-4.56-3.843-7.28-7.834-8.32-12.046v-.074C.56 9.483 1.6 6.084 4.32 3.941c1.6-1.257 3.6-1.922 5.68-1.922zm0-.739c-2.24 0-4.48.665-6.24 2.07C.64 5.787-.32 9.556.8 12.882c1.2 4.582 4.16 8.646 8.56 12.415.16.148.32.222.56.222.16 0 .4-.074.56-.222 4.8-3.99 7.92-8.35 8.8-13.228.72-3.178-.4-6.651-3.36-8.869-1.68-1.329-3.76-1.92-5.92-1.92z"/>
        <path d="M-6-2h32v32H-6z"/>
    </g>
</symbol>
<symbol id="icon-log-out" viewBox="0 0 16 16">
    <g>
        <path d="M1.902.004H14.12c1.031 0 1.87.841 1.87 1.874v2.499h-1.247V1.878a.625.625 0 0 0-.623-.624H1.9a.625.625 0 0 0-.623.624v12.244c0 .344.28.624.623.624h12.22c.344 0 .623-.28.623-.624v-2.499h1.247v2.499a1.874 1.874 0 0 1-1.87 1.874H1.9c-1.03 0-1.87-.841-1.87-1.874V1.878A1.877 1.877 0 0 1 1.901.004z"/>
        <path d="M4.645 7.375h8.968l-2.369-2.373.882-.884L16 8l-3.874 3.882-.882-.884 2.37-2.373h-8.97z"/>
    </g>
</symbol>
<symbol id="icon-next" viewBox="0 0 18 19">
    <g>
        <path d="M-7-7h32v32H-7z"/>
        <path stroke-width=".6" d="M1.285 18.145c-.05-.256-1.172-6.3 1.816-10.162 1.366-1.767 3.373-2.78 5.97-3.015V0l7.879 7.879-7.88 7.88v-5.173a7.522 7.522 0 0 0-.999-.066c-2.271 0-6.082.982-6.082 7.558l-.704.067zM9.781 1.716v3.916l-.333.02c-2.543.162-4.49 1.092-5.784 2.763C2.308 10.17 1.87 12.47 1.78 14.38c1.274-4.054 4.654-4.57 6.292-4.57.835 0 1.407.123 1.43.128l.28.062v4.041l6.162-6.162-6.163-6.163z"/>
    </g>
</symbol>
<symbol id="icon-nothing" viewBox="0 0 26 26">
    <g fill-rule="evenodd">
        <path fill="#FFF" fill-rule="nonzero" stroke="#FFF" stroke-width=".6" d="M13 1.8c2.96 0 5.84 1.2 7.92 3.28A11.27 11.27 0 0 1 24.2 13c0 2.96-1.2 5.84-3.28 7.92A11.27 11.27 0 0 1 13 24.2c-2.96 0-5.84-1.2-7.92-3.28-4.4-4.4-4.4-11.44 0-15.84C7.16 2.92 10.04 1.8 13 1.8zm0-.8C9.96 1 6.84 2.2 4.52 4.52-.2 9.24-.2 16.84 4.52 21.48 6.84 23.8 9.96 25 13 25s6.16-1.2 8.48-3.52c4.72-4.72 4.72-12.32 0-16.96C19.16 2.12 16.04 1 13 1z"/>
        <path fill="#FFF" fill-rule="nonzero" stroke="#FFF" stroke-width=".6" d="M4.227 21.144L20.915 4.456l.707.707L4.934 21.851z"/>
        <path d="M-3-3h32v32H-3z"/>
    </g>
</symbol>
<symbol id="icon-notification" viewBox="0 0 15 16">
    <g fill-rule="nonzero">
        <path d="M13.989 11.988a1.332 1.332 0 0 1-1.332-1.332V5.328a5.328 5.328 0 0 0-10.656 0v5.328c0 .736-.597 1.332-1.332 1.332H.003v1.332h4.662a2.664 2.664 0 0 0 5.328 0h4.662v-1.332h-.666zm-6.66 2.664a1.332 1.332 0 0 1-1.332-1.332H8.66c0 .736-.597 1.332-1.332 1.332zm-4.366-2.664c.23-.393.37-.844.37-1.332V5.328a3.996 3.996 0 0 1 7.992 0v5.328c0 .488.141.939.37 1.332H2.963z"/>
    </g>
</symbol>
<symbol id="icon-previous" viewBox="0 0 18 19">
    <g>
        <path d="M-7-7h32v32H-7z"/>
        <path stroke-width=".6" d="M16.702 18.145c.05-.256 1.173-6.3-1.815-10.162-1.367-1.767-3.374-2.78-5.97-3.015V0l-7.88 7.879 7.88 7.88v-5.173c.227-.03.577-.066.999-.066 2.272 0 6.082.982 6.082 7.558l.704.067zM8.206 1.716v3.916l.333.02c2.544.162 4.49 1.092 5.784 2.763 1.357 1.754 1.795 4.055 1.884 5.965-1.274-4.054-4.653-4.57-6.291-4.57-.835 0-1.407.123-1.431.128l-.28.062v4.041L2.044 7.88l6.163-6.163z"/>
    </g>
</symbol>
<symbol id="icon-print" viewBox="0 0 16 16">
    <g>
        <path d="M4.837 4.493a.745.745 0 1 0 .002 1.49.745.745 0 0 0-.002-1.49zm-2.232 0a.745.745 0 1 0 .001 1.49.745.745 0 0 0-.001-1.49z"/>
        <path d="M14.884 2.633h-1.117V.028H2.233v2.605H1.116C.501 2.633 0 3.133 0 3.749v6.698c0 .616.5 1.116 1.116 1.116h1.117v3.721h11.534v-3.72h1.117c.615 0 1.116-.502 1.116-1.117V3.749c0-.615-.5-1.116-1.116-1.116zM3.349 1.145h9.302v1.488H3.35V1.145zm9.302 13.023H3.35V7.842h9.302v6.326zm2.233-3.721h-1.117V6.726H2.233v3.72H1.116V3.75h13.768v6.698z"/>
        <path d="M4.651 9.331h6.698v1.116H4.651zm0 2.232h5.954v1.116H4.651z"/>
    </g>
</symbol>
<symbol id="icon-qr-code" viewBox="0 0 26 26">
    <g fill-rule="evenodd">
        <path fill="#FFF" fill-rule="nonzero" stroke="#FFF" stroke-width=".6" d="M11.48 1.8v9.68H1.8V1.8h9.68zm0-.8H1.8c-.48 0-.8.32-.8.8v9.68c0 .48.32.8.8.8h9.68c.48 0 .8-.32.8-.8V1.8c0-.48-.4-.8-.8-.8z"/>
        <path fill="#FFF" fill-rule="nonzero" stroke="#FFF" stroke-width=".6" d="M8.2 5v3.2H5V5h3.2zm.8-.8H4.2V9H9V4.2zm2.48 10.32v9.68H1.8v-9.68h9.68zm0-.8H1.8c-.48 0-.8.32-.8.8v9.68c0 .48.32.8.8.8h9.68c.48 0 .8-.32.8-.8v-9.68c0-.4-.4-.8-.8-.8zm12.72 4.56v5.92h-5.92v-5.92h5.92zm0-.8h-5.92c-.48 0-.8.32-.8.8v5.92c0 .48.32.8.8.8h5.92c.48 0 .8-.32.8-.8v-5.92c0-.4-.32-.8-.8-.8z"/>
        <path fill="#FFF" fill-rule="nonzero" stroke="#FFF" stroke-width=".6" d="M17.4 14.52v2.88h-2.88v-2.88h2.88zm0-.8h-2.88c-.48 0-.8.32-.8.8v2.88c0 .48.32.8.8.8h2.88c.48 0 .8-.32.8-.8v-2.88c0-.4-.32-.8-.8-.8zm7.6 0h-4.48v.88H25zM8.2 17.8V21H5v-3.2h3.2zM9 17H4.2v4.8H9V17zM24.2 1.8v9.68h-9.68V1.8h9.68zm0-.8h-9.68c-.48 0-.8.32-.8.8v9.68c0 .48.32.8.8.8h9.68c.48 0 .8-.32.8-.8V1.8c0-.48-.32-.8-.8-.8z"/>
        <path fill="#FFF" fill-rule="nonzero" stroke="#FFF" stroke-width=".6" d="M21 5v3.2h-3.2V5H21zm.8-.8H17V9h4.8V4.2zm-5.04 20H14.6v-4.48h-.8v4.48c0 .48.32.8.8.8h2.16v-.8zm5.28-3.76h-1.6v1.6h1.6z"/>
        <path d="M-3-3h32v32H-3z"/>
    </g>
</symbol>
<symbol id="icon-reports" viewBox="0 0 16 12">
    <g>
        <path d="M1.143 10.101V.006H0v11.238h16v-1.143z"/>
        <path d="M14.476.958a.763.763 0 0 0-.762.762c0 .017.002.034.003.05L10.59 5.835 7.614 3.156a.763.763 0 0 0-1.519.088c0 .017.002.033.003.05L2.902 7.449a.763.763 0 0 0 .146 1.51c.42 0 .762-.342.762-.763l-.003-.05 3.127-4.064L9.91 6.76a.763.763 0 0 0 1.519-.088c0-.017-.002-.034-.003-.05l3.196-4.155a.763.763 0 0 0-.146-1.51z"/>
    </g>
</symbol>
<symbol id="icon-search" viewBox="0 0 18 18">
    <g fill-rule="evenodd">
        <path fill="#8191AC" d="M17.305 16.29a.73.73 0 0 1 .195.507.73.73 0 0 1-.195.508.73.73 0 0 1-.508.195.662.662 0 0 1-.488-.195l-4.024-4.024C10.892 14.427 9.297 15 7.5 15c-2.07 0-3.838-.732-5.303-2.197C.732 11.338 0 9.57 0 7.5s.732-3.838 2.197-5.303C3.662.732 5.43 0 7.5 0s3.838.732 5.303 2.197C14.268 3.662 15 5.43 15 7.5c0 1.797-.573 3.392-1.719 4.785l4.024 4.004zm-7.442-3.165a6.154 6.154 0 0 0 1.944-1.318 6.154 6.154 0 0 0 1.318-1.944c.313-.742.469-1.53.469-2.363s-.156-1.621-.469-2.363a6.154 6.154 0 0 0-1.318-1.944 6.154 6.154 0 0 0-1.944-1.318A6.028 6.028 0 0 0 7.5 1.406c-.833 0-1.621.156-2.363.469a6.154 6.154 0 0 0-1.944 1.318 5.896 5.896 0 0 0-1.298 1.944A5.82 5.82 0 0 0 1.406 7.5c0 .833.163 1.621.489 2.363.299.73.732 1.377 1.298 1.944a6.154 6.154 0 0 0 1.944 1.318c.742.313 1.53.469 2.363.469s1.621-.156 2.363-.469z"/>
        <path d="M-4-4h24v24H-4z"/>
    </g>
</symbol>
<symbol id="icon-settings" viewBox="0 0 16 16">
    <g>
        <path d="M14.56 8.468a6.543 6.543 0 0 0 0-.967l1.209-1.119a.623.623 0 0 0 .116-.77l-1.88-3.241a.625.625 0 0 0-.724-.284l-1.58.483a6.59 6.59 0 0 0-.843-.486l-.369-1.6A.625.625 0 0 0 9.88 0H6.12c-.291 0-.544.2-.609.484l-.369 1.6c-.292.14-.574.303-.844.486L2.72 2.087a.625.625 0 0 0-.724.284L.115 5.612a.623.623 0 0 0 .116.77l1.209 1.12a6.543 6.543 0 0 0 0 .966L.23 9.587a.623.623 0 0 0-.116.77l1.88 3.24a.625.625 0 0 0 .724.285l1.58-.483c.269.183.55.345.843.486l.369 1.6a.625.625 0 0 0 .61.484h3.76c.291 0 .544-.2.609-.484l.369-1.6c.292-.14.574-.303.844-.486l1.579.483a.626.626 0 0 0 .724-.284l1.88-3.241a.623.623 0 0 0-.116-.77l-1.209-1.12zM13.288 7.33a5.3 5.3 0 0 1 0 1.308.623.623 0 0 0 .195.534l1.07.99-1.381 2.382-1.4-.428a.626.626 0 0 0-.56.098 5.333 5.333 0 0 1-1.137.655.624.624 0 0 0-.366.435l-.326 1.417H6.617l-.327-1.417a.624.624 0 0 0-.366-.435 5.334 5.334 0 0 1-1.137-.655.626.626 0 0 0-.56-.098l-1.4.428-1.38-2.381 1.069-.991a.623.623 0 0 0 .195-.534 5.328 5.328 0 0 1 0-1.308.623.623 0 0 0-.195-.533l-1.07-.99 1.381-2.382 1.4.428c.192.058.4.022.56-.099A5.333 5.333 0 0 1 5.925 3.1a.624.624 0 0 0 .366-.434l.327-1.417h2.764l.327 1.417a.624.624 0 0 0 .366.434c.403.17.786.39 1.138.655.16.12.367.157.559.099l1.4-.428 1.38 2.381-1.069.99a.623.623 0 0 0-.195.534z"/>
        <path d="M8 5.49a2.5 2.5 0 0 0-2.5 2.494 2.5 2.5 0 0 0 5 0A2.5 2.5 0 0 0 8 5.49zm0 3.742c-.69 0-1.25-.56-1.25-1.248a1.25 1.25 0 0 1 2.5 0A1.25 1.25 0 0 1 8 9.232z"/>
    </g>
</symbol>
<symbol id="icon-show" viewBox="0 0 16 11">
    <g>
        <path d="M7.992.01C4.575.01 1.6 2.157 0 5.34c1.599 3.182 4.575 5.328 7.992 5.328s6.394-2.146 7.992-5.328C14.386 2.157 11.41.01 7.992.01zm0 9.325c-2.572 0-5-1.515-6.474-3.996C2.992 2.857 5.42 1.343 7.992 1.343s5 1.514 6.475 3.996c-1.474 2.48-3.903 3.996-6.475 3.996z"/>
        <path d="M7.992 2.342a2.996 2.996 0 1 0 0 5.994 2.997 2.997 0 1 0 0-5.994zm0 4.662a1.665 1.665 0 1 1 0-3.33 1.665 1.665 0 0 1 0 3.33z"/>
    </g>
</symbol>
<symbol id="icon-team" viewBox="0 0 16 16">
    <path d="M15.907 13.893a4.412 4.412 0 0 0-2.368-2.522c.364-.425.585-.976.585-1.578 0-1.103-.74-2.037-1.751-2.333a1.613 1.613 0 0 0-.062-.897A4.482 4.482 0 0 0 9.86 4.002c.36-.424.576-.972.576-1.57a2.438 2.438 0 0 0-4.875 0c0 .598.218 1.146.577 1.57a4.482 4.482 0 0 0-2.451 2.56c-.106.29-.12.6-.049.894a2.437 2.437 0 0 0-1.764 2.337c0 .602.22 1.153.585 1.578A4.412 4.412 0 0 0 .09 13.893c-.17.47-.099.996.19 1.406.295.42.781.67 1.3.67h2.293a.624.624 0 1 0 0-1.248H1.58a.334.334 0 0 1-.278-.14.284.284 0 0 1-.036-.265c.451-1.25 1.675-2.09 3.044-2.09 1.37 0 2.594.84 3.045 2.09.014.04.02.075.02.108v.01a.295.295 0 0 1-.054.158.307.307 0 0 1-.26.13.624.624 0 1 0 0 1.247c.345 0 .676-.113.944-.313.27.2.603.313.95.313h2.355a.624.624 0 1 0 0-1.248H8.956a.334.334 0 0 1-.278-.14.284.284 0 0 1-.036-.265c.451-1.25 1.675-2.09 3.044-2.09 1.37 0 2.594.84 3.045 2.09a.294.294 0 0 1-.034.276.307.307 0 0 1-.26.13.624.624 0 1 0 0 1.247 1.548 1.548 0 0 0 1.47-2.076zm-3.033-4.1a1.188 1.188 0 0 1-2.375 0 1.188 1.188 0 0 1 2.375 0zM6.81 2.433a1.188 1.188 0 0 1 2.375 0 1.188 1.188 0 0 1-2.375 0zm-3.687 7.36a1.188 1.188 0 0 1 2.375 0 1.188 1.188 0 0 1-2.375 0zm4.875 3.08a4.467 4.467 0 0 0-1.835-1.502 2.418 2.418 0 0 0 .309-2.7H7.78a.624.624 0 1 0 0-1.248H5.2a.358.358 0 0 1-.298-.152.301.301 0 0 1-.04-.28c.464-1.272 1.725-2.126 3.137-2.126s2.673.854 3.138 2.125c.054.149.001.299-.075.364l-.004.004a1.039 1.039 0 0 1-.23.151.626.626 0 0 0-.18.084c-.826.39-1.4 1.23-1.4 2.2 0 .602.221 1.153.586 1.578a4.466 4.466 0 0 0-1.835 1.501z"/>
</symbol>
<symbol id="icon-templates" viewBox="0 0 16 16">
    <g>
        <path d="M3.996 0v6.66h5.328v5.328h6.66V0H3.996zm10.656 10.656h-3.996V5.328H5.328V1.332h9.324v9.324z"/>
        <path d="M0 7.992v7.992h7.992V7.992H0zm6.66 6.66H1.332V9.324H6.66v5.328z"/>
    </g>
</symbol>
<symbol id="icon-text" viewBox="0 0 26 26">
    <g fill-rule="evenodd">
        <path fill="#FFF" fill-rule="nonzero" stroke="#FFF" stroke-width=".6" d="M12.44 8.92H9.32v-.8h7.28v.8h-3.12v8.16h-.96V8.92z"/>
        <path fill="#FFF" fill-rule="nonzero" stroke="#FFF" stroke-width=".6" d="M8.6 8.12h1v2.48h-1zm2.763 9.681v-1h3.2v1zM16.6 8.12h1v2.48h-1zM25 1h-2.4v.8H25V1zm-4.8 0h-2.4v.8h2.4V1zm-4.8 0H13v.8h2.4V1zm-4.8 0H8.2v.8h2.4V1zM5.8 1H3.4v.8h2.4V1zm-4 0H1v2.4h.8V1zm0 4.8H1v2.4h.8V5.8zm0 4.8H1V13h.8v-2.4zm0 4.8H1v2.4h.8v-2.4zm0 4.8H1v2.4h.8v-2.4zm-.8 4v.8h2.4v-.8H1zm7.2 0H5.8v.8h2.4v-.8zm4.8 0h-2.4v.8H13v-.8zm4.8 0h-2.4v.8h2.4v-.8zm4.8 0h-2.4v.8h2.4v-.8zm1.6-1.6V25h.8v-2.4h-.8zm.8-4.8h-.8v2.4h.8v-2.4zm0-4.8h-.8v2.4h.8V13zm0-4.8h-.8v2.4h.8V8.2zm0-4.8h-.8v2.4h.8V3.4z"/>
        <path d="M-3-3h32v32H-3z"/>
    </g>
</symbol>
<symbol id="icon-video-360" viewBox="0 0 26 23">
    <g fill-rule="evenodd">
        <path fill="#FFF" fill-rule="nonzero" stroke="#FFF" stroke-width=".6" d="M1 5.4h1v12.08H1zm23.2 0h1v12.08h-1zm-4 3.04h1v12.08h-1zM5 8.44h1v12.08H5z"/>
        <path fill="#FFF" fill-rule="nonzero" stroke="#FFF" stroke-width=".6" d="M13 .6C6.36.6 1 2.76 1 5.4c0 1.44 1.6 2.8 4.16 3.68.16.08.32.08.56.16v-.8c-.08 0-.16-.08-.24-.08C3.24 7.48 1.8 6.44 1.8 5.4c0-1.92 4.56-4 11.2-4s11.2 2.08 11.2 4c0 1.04-1.52 2.24-4 3.04v.8c.08 0 .16-.08.24-.08C23.24 8.28 25 6.92 25 5.4 25 2.76 19.64.6 13 .6zm11.76 15.68v1.2h-.56c-.24 1.84-4.8 3.84-11.2 3.84-6.64 0-11.2-2.08-11.2-4h-.64v-.72c-.08.24-.16.48-.16.72 0 2.64 5.36 4.8 12 4.8s12-2.16 12-4.8c0-.32-.08-.72-.24-1.04z"/>
        <path fill="#FFF" fill-rule="nonzero" stroke="#FFF" stroke-width=".6" d="M17.56 5.56c-.72 0-1.36-.64-1.36-1.36 0-.72.64-1.36 1.36-1.36.72 0 1.36.64 1.36 1.36 0 .72-.64 1.36-1.36 1.36zm0-1.84c-.32 0-.56.24-.56.56 0 .32.24.56.56.56.32 0 .56-.24.56-.56 0-.32-.32-.56-.56-.56zM13 7c1.36 0 2.4 1.04 2.4 2.4 0 1.36-1.04 2.4-2.4 2.4-1.36 0-2.4-1.04-2.4-2.4C10.6 8.04 11.64 7 13 7zm0-.8a3.21 3.21 0 0 0-3.2 3.2c0 1.76 1.44 3.2 3.2 3.2 1.76 0 3.2-1.44 3.2-3.2 0-1.76-1.44-3.2-3.2-3.2z"/>
        <path fill="#FFF" fill-rule="nonzero" stroke="#FFF" stroke-width=".6" d="M13 12.6c2.64 0 4.72 2.08 4.72 4.72h.8c0-3.04-2.48-5.52-5.52-5.52-3.04 0-5.52 2.48-5.52 5.52h.8c0-2.64 2.08-4.72 4.72-4.72zm-5.68.48c-.72.16-1.36.32-2 .56v.8c.56-.24 1.28-.4 2-.56v-.8zm11.2 0v.8c.72.16 1.44.32 2.08.56v-.8c-.64-.24-1.36-.4-2.08-.56zm-1.84-9.04l.16-.4c-1.2-.16-2.48-.24-3.76-.24-5.2 0-9.6 1.28-11.28 3.12l.64.48C3.88 5.48 7.8 4.12 13.08 4.12c1.28 0 2.56.08 3.68.24l-.08-.32z"/>
        <path d="M-3-5h32v32H-3z"/>
    </g>
</symbol>
<symbol id="icon-video" viewBox="0 0 27 18">
    <g fill-rule="evenodd">
        <path fill="#FFF" fill-rule="nonzero" stroke="#FFF" stroke-width=".6" d="M19.48 1.64c.48 0 .8.32.8.8v12.8c0 .48-.32.8-.8.8H2.68c-.48 0-.8-.32-.8-.8V2.44c0-.48.32-.8.8-.8h16.8zm0-.8H2.68c-.88 0-1.6.72-1.6 1.6v12.8c0 .88.72 1.6 1.6 1.6h16.8c.88 0 1.6-.72 1.6-1.6V2.44c0-.88-.72-1.6-1.6-1.6z"/>
        <path fill="#FFF" fill-rule="nonzero" stroke="#FFF" stroke-width=".6" d="M25.08 3v11.68l-4-2.24V5.32l4-2.32zm.16-.88c-.08 0-.24 0-.32.08l-4.16 2.4c-.24.16-.4.4-.4.72v7.04c0 .32.16.56.4.72l4.16 2.4c.08.08.24.08.32.08.4 0 .72-.32.72-.8V2.92c-.08-.4-.4-.8-.72-.8zM11.88 4.76H4.2c-.24 0-.4-.16-.4-.4 0-.24.16-.4.4-.4h7.6c.24 0 .4.16.4.4 0 .24-.08.4-.32.4zm0 1.68H4.2c-.24 0-.4-.16-.4-.4 0-.24.16-.4.4-.4h7.6c.24 0 .4.16.4.4 0 .24-.08.4-.32.4zm0 1.6H4.2c-.24 0-.4-.16-.4-.4 0-.24.16-.4.4-.4h7.6c.24 0 .4.16.4.4 0 .24-.08.4-.32.4z"/>
        <path d="M-3-7h32v32H-3z"/>
    </g>
</symbol>
<symbol id="icon-info" viewBox="0 0 16 16">
    <g fill-rule="nonzero">
        <path d="M8 0C3.578 0 0 3.578 0 8c0 4.422 3.578 8 8 8 4.422 0 8-3.578 8-8 0-4.422-3.578-8-8-8zm0 14.884A6.892 6.892 0 0 1 1.116 8 6.892 6.892 0 0 1 8 1.116 6.891 6.891 0 0 1 14.884 8 6.891 6.891 0 0 1 8 14.884z"/>
        <rect width="1.4" height="6" x="7.3" y="6.4" rx=".7"/>
        <path d="M7.995 4a.8.8 0 0 0 0 1.6.81.81 0 0 0 .805-.8.81.81 0 0 0-.805-.8z"/>
    </g>
</symbol>
<symbol id="icon-close" viewBox="0 0 18 18">
    <path fill-rule="nonzero" d="M9 7.586L16.071.515a1 1 0 0 1 1.414 1.414L10.415 9l7.07 7.071a1 1 0 0 1-1.414 1.414L9 10.415l-7.071 7.07a1 1 0 1 1-1.414-1.414L7.585 9 .516 1.929A1 1 0 0 1 1.929.515L9 7.585z"/>
</symbol>
<symbol id="icon-chevron-left" viewBox="0 0 5 8">
    <path fill-rule="evenodd" d="M4 0l.94.94L1.887 4 4.94 7.06 4 8 0 4z"/>
</symbol>
<symbol id="icon-googleplus" viewBox="0 0 20 20">
<path d="M1.989 5.589c0 1.494 0.499 2.572 1.482 3.205 0.806 0.52 1.74 0.598 2.226 0.598 0.118 0 0.213-0.006 0.279-0.010 0 0-0.154 1.004 0.59 1.996h-0.034c-1.289 0-5.493 0.269-5.493 3.727 0 3.516 3.861 3.695 4.636 3.695 0.061 0 0.097-0.002 0.097-0.002 0.008 0 0.063 0.002 0.158 0.002 0.497 0 1.782-0.062 2.975-0.643 1.548-0.75 2.333-2.059 2.333-3.885 0-1.764-1.196-2.814-2.069-3.582-0.533-0.469-0.994-0.873-0.994-1.266 0-0.4 0.337-0.701 0.762-1.082 0.689-0.615 1.339-1.492 1.339-3.15 0-1.457-0.189-2.436-1.354-3.057 0.121-0.062 0.551-0.107 0.763-0.137 0.631-0.086 1.554-0.184 1.554-0.699v-0.099h-4.599c-0.046 0.002-4.651 0.172-4.651 4.389zM9.413 14.602c0.088 1.406-1.115 2.443-2.922 2.574-1.835 0.135-3.345-0.691-3.433-2.096-0.043-0.676 0.254-1.336 0.835-1.863 0.589-0.533 1.398-0.863 2.278-0.928 0.104-0.006 0.207-0.012 0.31-0.012 1.699 0.001 2.849 0.999 2.932 2.325zM8.212 4.626c0.451 1.588-0.23 3.246-1.316 3.553-0.125 0.035-0.253 0.052-0.384 0.052-0.994 0-1.979-1.006-2.345-2.393-0.204-0.776-0.187-1.458 0.047-2.112 0.229-0.645 0.643-1.078 1.163-1.225 0.125-0.035 0.254-0.053 0.385-0.053 1.2 0 1.972 0.498 2.45 2.178zM16 8v-3h-2v3h-3v2h3v3h2v-3h3v-2h-3z"></path>
</symbol>
<symbol id="icon-facebook" viewBox="0 0 16 28">
<path d="M14.984 0.187v4.125h-2.453c-1.922 0-2.281 0.922-2.281 2.25v2.953h4.578l-0.609 4.625h-3.969v11.859h-4.781v-11.859h-3.984v-4.625h3.984v-3.406c0-3.953 2.422-6.109 5.953-6.109 1.687 0 3.141 0.125 3.563 0.187z"></path>
</symbol>
<symbol id="icon-plane" viewBox="0 0 24 24">
    <g fill-rule="nonzero">
        <path d="M11.055 12.03a.476.476 0 0 0 0 .662.448.448 0 0 0 .646 0 .476.476 0 0 0 0-.662.448.448 0 0 0-.646 0z"/>
        <path d="M18.313 1.392c-.783.622-.997.942-3.774 3.76l-1.666-.278.764-.784a1.427 1.427 0 0 0 0-1.984 1.345 1.345 0 0 0-1.936 0L9.543 4.318l-7.549-1.26A1.52 1.52 0 0 0 .658 3.5a1.604 1.604 0 0 0 .186 2.395l7.522 5.583-1.408 1.444c-.483.495-.99 1.175-1.513 2.025l-3.508-1.058a1.451 1.451 0 0 0-1.46.382 1.536 1.536 0 0 0 .204 2.313l2.876 2.04c-.5 1.133-.805 1.951-.819 1.99a.476.476 0 0 0 .104.496c.128.131.318.172.485.107.037-.015.836-.327 1.94-.84l1.991 2.948a1.453 1.453 0 0 0 2.257.208c.381-.391.524-.964.372-1.495l-1.032-3.596c.83-.535 1.493-1.056 1.975-1.55l1.409-1.444 5.447 7.71a1.516 1.516 0 0 0 2.336.19c.35-.357.51-.869.432-1.369l-1.23-7.737 2.159-2.212a1.428 1.428 0 0 0 0-1.985 1.345 1.345 0 0 0-1.936 0l-.765.783-.27-1.707c2.751-2.85 3.059-3.063 3.666-3.866l.002-.003c1.408-1.87 1.737-3.76.82-4.7-.919-.941-2.762-.604-4.587.84zm-5.967 1.375a.449.449 0 0 1 .646 0 .476.476 0 0 1 0 .662l-1.23 1.26-1.11-.186 1.694-1.736zM1.38 5.137a.653.653 0 0 1-.075-.975.619.619 0 0 1 .544-.18l11.895 1.985-4.723 4.841-7.641-5.671zm-.256 9.796a.553.553 0 0 1 .557-.146l3.28.99a32.136 32.136 0 0 0-1.011 1.987L1.2 15.814a.586.586 0 0 1-.078-.881zm7.746 7.94a.554.554 0 0 1-.86-.08l-1.902-2.817a31.03 31.03 0 0 0 1.94-1.037l.964 3.363a.587.587 0 0 1-.142.57zm11.223-12.166a.448.448 0 0 1 .646 0 .476.476 0 0 1 0 .661l-1.694 1.736-.18-1.138 1.228-1.26zm-.54 11.422a.655.655 0 0 1-.175.558.617.617 0 0 1-.951-.077l-5.533-7.832 4.723-4.841 1.937 12.192zm-9.367-5.899c-.502.515-1.237 1.071-2.185 1.653-1.231.756-2.689 1.472-4.004 2.044.574-1.384 1.286-2.902 2.04-4.179.55-.935 1.078-1.663 1.567-2.164C18.753 2.184 18.092 2.77 18.77 2.217c.75-.05 1.41.179 1.87.65.46.472.684 1.15.636 1.918-.542.696.025.025-11.09 11.445zM22.056 3.556a3.139 3.139 0 0 0-.77-1.35 3.031 3.031 0 0 0-1.318-.79c.66-.343 1.773-.728 2.286-.203.405.415.304 1.329-.198 2.343z"/>
        <path d="M13.637 9.383l-1.29 1.323a.476.476 0 0 0 0 .662.449.449 0 0 0 .645 0l1.29-1.323a.476.476 0 0 0 0-.662.448.448 0 0 0-.645 0zM16.22 6.737L14.928 8.06a.477.477 0 0 0 0 .662.449.449 0 0 0 .646 0l1.29-1.323a.476.476 0 0 0 0-.662.448.448 0 0 0-.644 0z"/>
    </g>
</symbol>
</svg>
</svg>