<svg xmlns="http://www.w3.org/2000/svg" width="18" height="16" viewBox="0 0 18 16">
    <path fill="#09BAA6" fill-rule="nonzero" stroke="#FFF" stroke-width="2" d="M16.288 2.024c-.153-.372-.377-.565-.803-.857-.372-.255-.941-.139-1.247.158-1.584 1.535-3.101 3.139-4.492 4.846-.676.83-1.657 1.825-2.253 2.877a18.694 18.694 0 0 1-.834-.708c-.875-.802-1.839-1.775-2.934-2.292-.905-.428-1.588-.039-2.162.7-.17.218-.367.582-.366.896-.23.242-.294.634.004.994 1.931 2.332 4.322 4.15 6.857 5.807.337.221.978.176 1.242-.157a98.44 98.44 0 0 0 7.523-10.955c.372-.63-.01-1.156-.535-1.31z"/>
</svg>
